<svg xmlns="http://www.w3.org/2000/svg" xmlns:xlink="http://www.w3.org/1999/xlink" viewBox="0 0 820 342.1320754716981" width="820" height="342.1320754716981" font-family="'Roboto Mono', 'Fira Code', Consolas, 'DejaVu Sans Mono', monospace">
<rect width="820" height="342.1320754716981" rx="14" fill="#323437"/>
<text x="40.0" y="44.0" font-size="20" fill="#e2b714" text-anchor="start" font-weight="700">github activity</text>
<text x="780.0" y="44.0" font-size="15" fill="#646669" text-anchor="end">551 contributions in the last year</text>
<rect x="40.0" y="86.0" width="11.0" height="11.0" rx="2" fill="#2c2e31"/>
<rect x="40.0" y="100.0" width="11.0" height="11.0" rx="2" fill="#2c2e31"/>
<rect x="40.0" y="114.0" width="11.0" height="11.0" rx="2" fill="#2c2e31"/>
<rect x="40.0" y="128.1" width="11.0" height="11.0" rx="2" fill="#2c2e31"/>
<rect x="40.0" y="142.1" width="11.0" height="11.0" rx="2" fill="#2c2e31"/>
<rect x="40.0" y="156.1" width="11.0" height="11.0" rx="2" fill="#2c2e31"/>
<rect x="40.0" y="170.1" width="11.0" height="11.0" rx="2" fill="#2c2e31"/>
<rect x="54.0" y="86.0" width="11.0" height="11.0" rx="2" fill="#2c2e31"/>
<rect x="54.0" y="100.0" width="11.0" height="11.0" rx="2" fill="#2c2e31"/>
<rect x="54.0" y="114.0" width="11.0" height="11.0" rx="2" fill="#2c2e31"/>
<rect x="54.0" y="128.1" width="11.0" height="11.0" rx="2" fill="#2c2e31"/>
<rect x="54.0" y="142.1" width="11.0" height="11.0" rx="2" fill="#2c2e31"/>
<rect x="54.0" y="156.1" width="11.0" height="11.0" rx="2" fill="#2c2e31"/>
<rect x="54.0" y="170.1" width="11.0" height="11.0" rx="2" fill="#5b4d1f"/>
<text x="68.0" y="78.0" font-size="11" fill="#646669" text-anchor="start">oct</text>
<rect x="68.0" y="86.0" width="11.0" height="11.0" rx="2" fill="#2c2e31"/>
<rect x="68.0" y="100.0" width="11.0" height="11.0" rx="2" fill="#2c2e31"/>
<rect x="68.0" y="114.0" width="11.0" height="11.0" rx="2" fill="#2c2e31"/>
<rect x="68.0" y="128.1" width="11.0" height="11.0" rx="2" fill="#2c2e31"/>
<rect x="68.0" y="142.1" width="11.0" height="11.0" rx="2" fill="#2c2e31"/>
<rect x="68.0" y="156.1" width="11.0" height="11.0" rx="2" fill="#2c2e31"/>
<rect x="68.0" y="170.1" width="11.0" height="11.0" rx="2" fill="#2c2e31"/>
<rect x="82.1" y="86.0" width="11.0" height="11.0" rx="2" fill="#2c2e31"/>
<rect x="82.1" y="100.0" width="11.0" height="11.0" rx="2" fill="#2c2e31"/>
<rect x="82.1" y="114.0" width="11.0" height="11.0" rx="2" fill="#2c2e31"/>
<rect x="82.1" y="128.1" width="11.0" height="11.0" rx="2" fill="#2c2e31"/>
<rect x="82.1" y="142.1" width="11.0" height="11.0" rx="2" fill="#2c2e31"/>
<rect x="82.1" y="156.1" width="11.0" height="11.0" rx="2" fill="#2c2e31"/>
<rect x="82.1" y="170.1" width="11.0" height="11.0" rx="2" fill="#2c2e31"/>
<rect x="96.1" y="86.0" width="11.0" height="11.0" rx="2" fill="#2c2e31"/>
<rect x="96.1" y="100.0" width="11.0" height="11.0" rx="2" fill="#2c2e31"/>
<rect x="96.1" y="114.0" width="11.0" height="11.0" rx="2" fill="#2c2e31"/>
<rect x="96.1" y="128.1" width="11.0" height="11.0" rx="2" fill="#2c2e31"/>
<rect x="96.1" y="142.1" width="11.0" height="11.0" rx="2" fill="#2c2e31"/>
<rect x="96.1" y="156.1" width="11.0" height="11.0" rx="2" fill="#2c2e31"/>
<rect x="96.1" y="170.1" width="11.0" height="11.0" rx="2" fill="#2c2e31"/>
<rect x="110.1" y="86.0" width="11.0" height="11.0" rx="2" fill="#2c2e31"/>
<rect x="110.1" y="100.0" width="11.0" height="11.0" rx="2" fill="#2c2e31"/>
<rect x="110.1" y="114.0" width="11.0" height="11.0" rx="2" fill="#2c2e31"/>
<rect x="110.1" y="128.1" width="11.0" height="11.0" rx="2" fill="#2c2e31"/>
<rect x="110.1" y="142.1" width="11.0" height="11.0" rx="2" fill="#2c2e31"/>
<rect x="110.1" y="156.1" width="11.0" height="11.0" rx="2" fill="#5b4d1f"/>
<rect x="110.1" y="170.1" width="11.0" height="11.0" rx="2" fill="#2c2e31"/>
<text x="124.1" y="78.0" font-size="11" fill="#646669" text-anchor="start">nov</text>
<rect x="124.1" y="86.0" width="11.0" height="11.0" rx="2" fill="#2c2e31"/>
<rect x="124.1" y="100.0" width="11.0" height="11.0" rx="2" fill="#2c2e31"/>
<rect x="124.1" y="114.0" width="11.0" height="11.0" rx="2" fill="#2c2e31"/>
<rect x="124.1" y="128.1" width="11.0" height="11.0" rx="2" fill="#2c2e31"/>
<rect x="124.1" y="142.1" width="11.0" height="11.0" rx="2" fill="#2c2e31"/>
<rect x="124.1" y="156.1" width="11.0" height="11.0" rx="2" fill="#2c2e31"/>
<rect x="124.1" y="170.1" width="11.0" height="11.0" rx="2" fill="#2c2e31"/>
<rect x="138.1" y="86.0" width="11.0" height="11.0" rx="2" fill="#2c2e31"/>
<rect x="138.1" y="100.0" width="11.0" height="11.0" rx="2" fill="#2c2e31"/>
<rect x="138.1" y="114.0" width="11.0" height="11.0" rx="2" fill="#2c2e31"/>
<rect x="138.1" y="128.1" width="11.0" height="11.0" rx="2" fill="#2c2e31"/>
<rect x="138.1" y="142.1" width="11.0" height="11.0" rx="2" fill="#2c2e31"/>
<rect x="138.1" y="156.1" width="11.0" height="11.0" rx="2" fill="#2c2e31"/>
<rect x="138.1" y="170.1" width="11.0" height="11.0" rx="2" fill="#2c2e31"/>
<rect x="152.2" y="86.0" width="11.0" height="11.0" rx="2" fill="#2c2e31"/>
<rect x="152.2" y="100.0" width="11.0" height="11.0" rx="2" fill="#2c2e31"/>
<rect x="152.2" y="114.0" width="11.0" height="11.0" rx="2" fill="#5b4d1f"/>
<rect x="152.2" y="128.1" width="11.0" height="11.0" rx="2" fill="#2c2e31"/>
<rect x="152.2" y="142.1" width="11.0" height="11.0" rx="2" fill="#2c2e31"/>
<rect x="152.2" y="156.1" width="11.0" height="11.0" rx="2" fill="#2c2e31"/>
<rect x="152.2" y="170.1" width="11.0" height="11.0" rx="2" fill="#2c2e31"/>
<rect x="166.2" y="86.0" width="11.0" height="11.0" rx="2" fill="#2c2e31"/>
<rect x="166.2" y="100.0" width="11.0" height="11.0" rx="2" fill="#2c2e31"/>
<rect x="166.2" y="114.0" width="11.0" height="11.0" rx="2" fill="#2c2e31"/>
<rect x="166.2" y="128.1" width="11.0" height="11.0" rx="2" fill="#2c2e31"/>
<rect x="166.2" y="142.1" width="11.0" height="11.0" rx="2" fill="#2c2e31"/>
<rect x="166.2" y="156.1" width="11.0" height="11.0" rx="2" fill="#2c2e31"/>
<rect x="166.2" y="170.1" width="11.0" height="11.0" rx="2" fill="#2c2e31"/>
<rect x="180.2" y="86.0" width="11.0" height="11.0" rx="2" fill="#2c2e31"/>
<rect x="180.2" y="100.0" width="11.0" height="11.0" rx="2" fill="#2c2e31"/>
<rect x="180.2" y="114.0" width="11.0" height="11.0" rx="2" fill="#2c2e31"/>
<rect x="180.2" y="128.1" width="11.0" height="11.0" rx="2" fill="#2c2e31"/>
<rect x="180.2" y="142.1" width="11.0" height="11.0" rx="2" fill="#2c2e31"/>
<rect x="180.2" y="156.1" width="11.0" height="11.0" rx="2" fill="#2c2e31"/>
<rect x="180.2" y="170.1" width="11.0" height="11.0" rx="2" fill="#2c2e31"/>
<text x="194.2" y="78.0" font-size="11" fill="#646669" text-anchor="start">dec</text>
<rect x="194.2" y="86.0" width="11.0" height="11.0" rx="2" fill="#2c2e31"/>
<rect x="194.2" y="100.0" width="11.0" height="11.0" rx="2" fill="#2c2e31"/>
<rect x="194.2" y="114.0" width="11.0" height="11.0" rx="2" fill="#2c2e31"/>
<rect x="194.2" y="128.1" width="11.0" height="11.0" rx="2" fill="#2c2e31"/>
<rect x="194.2" y="142.1" width="11.0" height="11.0" rx="2" fill="#2c2e31"/>
<rect x="194.2" y="156.1" width="11.0" height="11.0" rx="2" fill="#2c2e31"/>
<rect x="194.2" y="170.1" width="11.0" height="11.0" rx="2" fill="#2c2e31"/>
<rect x="208.2" y="86.0" width="11.0" height="11.0" rx="2" fill="#2c2e31"/>
<rect x="208.2" y="100.0" width="11.0" height="11.0" rx="2" fill="#2c2e31"/>
<rect x="208.2" y="114.0" width="11.0" height="11.0" rx="2" fill="#5b4d1f"/>
<rect x="208.2" y="128.1" width="11.0" height="11.0" rx="2" fill="#2c2e31"/>
<rect x="208.2" y="142.1" width="11.0" height="11.0" rx="2" fill="#2c2e31"/>
<rect x="208.2" y="156.1" width="11.0" height="11.0" rx="2" fill="#2c2e31"/>
<rect x="208.2" y="170.1" width="11.0" height="11.0" rx="2" fill="#2c2e31"/>
<rect x="222.2" y="86.0" width="11.0" height="11.0" rx="2" fill="#2c2e31"/>
<rect x="222.2" y="100.0" width="11.0" height="11.0" rx="2" fill="#2c2e31"/>
<rect x="222.2" y="114.0" width="11.0" height="11.0" rx="2" fill="#2c2e31"/>
<rect x="222.2" y="128.1" width="11.0" height="11.0" rx="2" fill="#2c2e31"/>
<rect x="222.2" y="142.1" width="11.0" height="11.0" rx="2" fill="#2c2e31"/>
<rect x="222.2" y="156.1" width="11.0" height="11.0" rx="2" fill="#2c2e31"/>
<rect x="222.2" y="170.1" width="11.0" height="11.0" rx="2" fill="#2c2e31"/>
<rect x="236.3" y="86.0" width="11.0" height="11.0" rx="2" fill="#2c2e31"/>
<rect x="236.3" y="100.0" width="11.0" height="11.0" rx="2" fill="#2c2e31"/>
<rect x="236.3" y="114.0" width="11.0" height="11.0" rx="2" fill="#2c2e31"/>
<rect x="236.3" y="128.1" width="11.0" height="11.0" rx="2" fill="#2c2e31"/>
<rect x="236.3" y="142.1" width="11.0" height="11.0" rx="2" fill="#2c2e31"/>
<rect x="236.3" y="156.1" width="11.0" height="11.0" rx="2" fill="#2c2e31"/>
<rect x="236.3" y="170.1" width="11.0" height="11.0" rx="2" fill="#2c2e31"/>
<text x="250.3" y="78.0" font-size="11" fill="#646669" text-anchor="start">jan</text>
<rect x="250.3" y="86.0" width="11.0" height="11.0" rx="2" fill="#5b4d1f"/>
<rect x="250.3" y="100.0" width="11.0" height="11.0" rx="2" fill="#5b4d1f"/>
<rect x="250.3" y="114.0" width="11.0" height="11.0" rx="2" fill="#5b4d1f"/>
<rect x="250.3" y="128.1" width="11.0" height="11.0" rx="2" fill="#2c2e31"/>
<rect x="250.3" y="142.1" width="11.0" height="11.0" rx="2" fill="#5b4d1f"/>
<rect x="250.3" y="156.1" width="11.0" height="11.0" rx="2" fill="#2c2e31"/>
<rect x="250.3" y="170.1" width="11.0" height="11.0" rx="2" fill="#2c2e31"/>
<rect x="264.3" y="86.0" width="11.0" height="11.0" rx="2" fill="#2c2e31"/>
<rect x="264.3" y="100.0" width="11.0" height="11.0" rx="2" fill="#5b4d1f"/>
<rect x="264.3" y="114.0" width="11.0" height="11.0" rx="2" fill="#5b4d1f"/>
<rect x="264.3" y="128.1" width="11.0" height="11.0" rx="2" fill="#2c2e31"/>
<rect x="264.3" y="142.1" width="11.0" height="11.0" rx="2" fill="#2c2e31"/>
<rect x="264.3" y="156.1" width="11.0" height="11.0" rx="2" fill="#2c2e31"/>
<rect x="264.3" y="170.1" width="11.0" height="11.0" rx="2" fill="#2c2e31"/>
<rect x="278.3" y="86.0" width="11.0" height="11.0" rx="2" fill="#2c2e31"/>
<rect x="278.3" y="100.0" width="11.0" height="11.0" rx="2" fill="#2c2e31"/>
<rect x="278.3" y="114.0" width="11.0" height="11.0" rx="2" fill="#2c2e31"/>
<rect x="278.3" y="128.1" width="11.0" height="11.0" rx="2" fill="#2c2e31"/>
<rect x="278.3" y="142.1" width="11.0" height="11.0" rx="2" fill="#2c2e31"/>
<rect x="278.3" y="156.1" width="11.0" height="11.0" rx="2" fill="#2c2e31"/>
<rect x="278.3" y="170.1" width="11.0" height="11.0" rx="2" fill="#2c2e31"/>
<rect x="292.3" y="86.0" width="11.0" height="11.0" rx="2" fill="#2c2e31"/>
<rect x="292.3" y="100.0" width="11.0" height="11.0" rx="2" fill="#2c2e31"/>
<rect x="292.3" y="114.0" width="11.0" height="11.0" rx="2" fill="#2c2e31"/>
<rect x="292.3" y="128.1" width="11.0" height="11.0" rx="2" fill="#2c2e31"/>
<rect x="292.3" y="142.1" width="11.0" height="11.0" rx="2" fill="#2c2e31"/>
<rect x="292.3" y="156.1" width="11.0" height="11.0" rx="2" fill="#2c2e31"/>
<rect x="292.3" y="170.1" width="11.0" height="11.0" rx="2" fill="#2c2e31"/>
<text x="306.4" y="78.0" font-size="11" fill="#646669" text-anchor="start">feb</text>
<rect x="306.4" y="86.0" width="11.0" height="11.0" rx="2" fill="#2c2e31"/>
<rect x="306.4" y="100.0" width="11.0" height="11.0" rx="2" fill="#5b4d1f"/>
<rect x="306.4" y="114.0" width="11.0" height="11.0" rx="2" fill="#2c2e31"/>
<rect x="306.4" y="128.1" width="11.0" height="11.0" rx="2" fill="#2c2e31"/>
<rect x="306.4" y="142.1" width="11.0" height="11.0" rx="2" fill="#2c2e31"/>
<rect x="306.4" y="156.1" width="11.0" height="11.0" rx="2" fill="#5b4d1f"/>
<rect x="306.4" y="170.1" width="11.0" height="11.0" rx="2" fill="#2c2e31"/>
<rect x="320.4" y="86.0" width="11.0" height="11.0" rx="2" fill="#2c2e31"/>
<rect x="320.4" y="100.0" width="11.0" height="11.0" rx="2" fill="#2c2e31"/>
<rect x="320.4" y="114.0" width="11.0" height="11.0" rx="2" fill="#2c2e31"/>
<rect x="320.4" y="128.1" width="11.0" height="11.0" rx="2" fill="#2c2e31"/>
<rect x="320.4" y="142.1" width="11.0" height="11.0" rx="2" fill="#2c2e31"/>
<rect x="320.4" y="156.1" width="11.0" height="11.0" rx="2" fill="#2c2e31"/>
<rect x="320.4" y="170.1" width="11.0" height="11.0" rx="2" fill="#2c2e31"/>
<rect x="334.4" y="86.0" width="11.0" height="11.0" rx="2" fill="#2c2e31"/>
<rect x="334.4" y="100.0" width="11.0" height="11.0" rx="2" fill="#2c2e31"/>
<rect x="334.4" y="114.0" width="11.0" height="11.0" rx="2" fill="#2c2e31"/>
<rect x="334.4" y="128.1" width="11.0" height="11.0" rx="2" fill="#2c2e31"/>
<rect x="334.4" y="142.1" width="11.0" height="11.0" rx="2" fill="#2c2e31"/>
<rect x="334.4" y="156.1" width="11.0" height="11.0" rx="2" fill="#5b4d1f"/>
<rect x="334.4" y="170.1" width="11.0" height="11.0" rx="2" fill="#2c2e31"/>
<rect x="348.4" y="86.0" width="11.0" height="11.0" rx="2" fill="#2c2e31"/>
<rect x="348.4" y="100.0" width="11.0" height="11.0" rx="2" fill="#b39212"/>
<rect x="348.4" y="114.0" width="11.0" height="11.0" rx="2" fill="#5b4d1f"/>
<rect x="348.4" y="128.1" width="11.0" height="11.0" rx="2" fill="#5b4d1f"/>
<rect x="348.4" y="142.1" width="11.0" height="11.0" rx="2" fill="#5b4d1f"/>
<rect x="348.4" y="156.1" width="11.0" height="11.0" rx="2" fill="#2c2e31"/>
<rect x="348.4" y="170.1" width="11.0" height="11.0" rx="2" fill="#2c2e31"/>
<text x="362.4" y="78.0" font-size="11" fill="#646669" text-anchor="start">mar</text>
<rect x="362.4" y="86.0" width="11.0" height="11.0" rx="2" fill="#2c2e31"/>
<rect x="362.4" y="100.0" width="11.0" height="11.0" rx="2" fill="#2c2e31"/>
<rect x="362.4" y="114.0" width="11.0" height="11.0" rx="2" fill="#2c2e31"/>
<rect x="362.4" y="128.1" width="11.0" height="11.0" rx="2" fill="#5b4d1f"/>
<rect x="362.4" y="142.1" width="11.0" height="11.0" rx="2" fill="#5b4d1f"/>
<rect x="362.4" y="156.1" width="11.0" height="11.0" rx="2" fill="#5b4d1f"/>
<rect x="362.4" y="170.1" width="11.0" height="11.0" rx="2" fill="#2c2e31"/>
<rect x="376.5" y="86.0" width="11.0" height="11.0" rx="2" fill="#2c2e31"/>
<rect x="376.5" y="100.0" width="11.0" height="11.0" rx="2" fill="#2c2e31"/>
<rect x="376.5" y="114.0" width="11.0" height="11.0" rx="2" fill="#5b4d1f"/>
<rect x="376.5" y="128.1" width="11.0" height="11.0" rx="2" fill="#2c2e31"/>
<rect x="376.5" y="142.1" width="11.0" height="11.0" rx="2" fill="#2c2e31"/>
<rect x="376.5" y="156.1" width="11.0" height="11.0" rx="2" fill="#5b4d1f"/>
<rect x="376.5" y="170.1" width="11.0" height="11.0" rx="2" fill="#2c2e31"/>
<rect x="390.5" y="86.0" width="11.0" height="11.0" rx="2" fill="#2c2e31"/>
<rect x="390.5" y="100.0" width="11.0" height="11.0" rx="2" fill="#2c2e31"/>
<rect x="390.5" y="114.0" width="11.0" height="11.0" rx="2" fill="#2c2e31"/>
<rect x="390.5" y="128.1" width="11.0" height="11.0" rx="2" fill="#2c2e31"/>
<rect x="390.5" y="142.1" width="11.0" height="11.0" rx="2" fill="#2c2e31"/>
<rect x="390.5" y="156.1" width="11.0" height="11.0" rx="2" fill="#2c2e31"/>
<rect x="390.5" y="170.1" width="11.0" height="11.0" rx="2" fill="#2c2e31"/>
<rect x="404.5" y="86.0" width="11.0" height="11.0" rx="2" fill="#2c2e31"/>
<rect x="404.5" y="100.0" width="11.0" height="11.0" rx="2" fill="#5b4d1f"/>
<rect x="404.5" y="114.0" width="11.0" height="11.0" rx="2" fill="#5b4d1f"/>
<rect x="404.5" y="128.1" width="11.0" height="11.0" rx="2" fill="#2c2e31"/>
<rect x="404.5" y="142.1" width="11.0" height="11.0" rx="2" fill="#2c2e31"/>
<rect x="404.5" y="156.1" width="11.0" height="11.0" rx="2" fill="#2c2e31"/>
<rect x="404.5" y="170.1" width="11.0" height="11.0" rx="2" fill="#2c2e31"/>
<rect x="418.5" y="86.0" width="11.0" height="11.0" rx="2" fill="#2c2e31"/>
<rect x="418.5" y="100.0" width="11.0" height="11.0" rx="2" fill="#2c2e31"/>
<rect x="418.5" y="114.0" width="11.0" height="11.0" rx="2" fill="#2c2e31"/>
<rect x="418.5" y="128.1" width="11.0" height="11.0" rx="2" fill="#2c2e31"/>
<rect x="418.5" y="142.1" width="11.0" height="11.0" rx="2" fill="#2c2e31"/>
<rect x="418.5" y="156.1" width="11.0" height="11.0" rx="2" fill="#2c2e31"/>
<rect x="418.5" y="170.1" width="11.0" height="11.0" rx="2" fill="#2c2e31"/>
<text x="432.5" y="78.0" font-size="11" fill="#646669" text-anchor="start">apr</text>
<rect x="432.5" y="86.0" width="11.0" height="11.0" rx="2" fill="#2c2e31"/>
<rect x="432.5" y="100.0" width="11.0" height="11.0" rx="2" fill="#2c2e31"/>
<rect x="432.5" y="114.0" width="11.0" height="11.0" rx="2" fill="#2c2e31"/>
<rect x="432.5" y="128.1" width="11.0" height="11.0" rx="2" fill="#2c2e31"/>
<rect x="432.5" y="142.1" width="11.0" height="11.0" rx="2" fill="#2c2e31"/>
<rect x="432.5" y="156.1" width="11.0" height="11.0" rx="2" fill="#2c2e31"/>
<rect x="432.5" y="170.1" width="11.0" height="11.0" rx="2" fill="#2c2e31"/>
<rect x="446.5" y="86.0" width="11.0" height="11.0" rx="2" fill="#2c2e31"/>
<rect x="446.5" y="100.0" width="11.0" height="11.0" rx="2" fill="#2c2e31"/>
<rect x="446.5" y="114.0" width="11.0" height="11.0" rx="2" fill="#2c2e31"/>
<rect x="446.5" y="128.1" width="11.0" height="11.0" rx="2" fill="#2c2e31"/>
<rect x="446.5" y="142.1" width="11.0" height="11.0" rx="2" fill="#2c2e31"/>
<rect x="446.5" y="156.1" width="11.0" height="11.0" rx="2" fill="#2c2e31"/>
<rect x="446.5" y="170.1" width="11.0" height="11.0" rx="2" fill="#2c2e31"/>
<rect x="460.6" y="86.0" width="11.0" height="11.0" rx="2" fill="#2c2e31"/>
<rect x="460.6" y="100.0" width="11.0" height="11.0" rx="2" fill="#5b4d1f"/>
<rect x="460.6" y="114.0" width="11.0" height="11.0" rx="2" fill="#2c2e31"/>
<rect x="460.6" y="128.1" width="11.0" height="11.0" rx="2" fill="#2c2e31"/>
<rect x="460.6" y="142.1" width="11.0" height="11.0" rx="2" fill="#2c2e31"/>
<rect x="460.6" y="156.1" width="11.0" height="11.0" rx="2" fill="#5b4d1f"/>
<rect x="460.6" y="170.1" width="11.0" height="11.0" rx="2" fill="#866d19"/>
<rect x="474.6" y="86.0" width="11.0" height="11.0" rx="2" fill="#2c2e31"/>
<rect x="474.6" y="100.0" width="11.0" height="11.0" rx="2" fill="#5b4d1f"/>
<rect x="474.6" y="114.0" width="11.0" height="11.0" rx="2" fill="#2c2e31"/>
<rect x="474.6" y="128.1" width="11.0" height="11.0" rx="2" fill="#2c2e31"/>
<rect x="474.6" y="142.1" width="11.0" height="11.0" rx="2" fill="#5b4d1f"/>
<rect x="474.6" y="156.1" width="11.0" height="11.0" rx="2" fill="#5b4d1f"/>
<rect x="474.6" y="170.1" width="11.0" height="11.0" rx="2" fill="#2c2e31"/>
<text x="488.6" y="78.0" font-size="11" fill="#646669" text-anchor="start">may</text>
<rect x="488.6" y="86.0" width="11.0" height="11.0" rx="2" fill="#2c2e31"/>
<rect x="488.6" y="100.0" width="11.0" height="11.0" rx="2" fill="#2c2e31"/>
<rect x="488.6" y="114.0" width="11.0" height="11.0" rx="2" fill="#5b4d1f"/>
<rect x="488.6" y="128.1" width="11.0" height="11.0" rx="2" fill="#2c2e31"/>
<rect x="488.6" y="142.1" width="11.0" height="11.0" rx="2" fill="#2c2e31"/>
<rect x="488.6" y="156.1" width="11.0" height="11.0" rx="2" fill="#2c2e31"/>
<rect x="488.6" y="170.1" width="11.0" height="11.0" rx="2" fill="#5b4d1f"/>
<rect x="502.6" y="86.0" width="11.0" height="11.0" rx="2" fill="#5b4d1f"/>
<rect x="502.6" y="100.0" width="11.0" height="11.0" rx="2" fill="#5b4d1f"/>
<rect x="502.6" y="114.0" width="11.0" height="11.0" rx="2" fill="#5b4d1f"/>
<rect x="502.6" y="128.1" width="11.0" height="11.0" rx="2" fill="#2c2e31"/>
<rect x="502.6" y="142.1" width="11.0" height="11.0" rx="2" fill="#2c2e31"/>
<rect x="502.6" y="156.1" width="11.0" height="11.0" rx="2" fill="#2c2e31"/>
<rect x="502.6" y="170.1" width="11.0" height="11.0" rx="2" fill="#2c2e31"/>
<rect x="516.6" y="86.0" width="11.0" height="11.0" rx="2" fill="#2c2e31"/>
<rect x="516.6" y="100.0" width="11.0" height="11.0" rx="2" fill="#2c2e31"/>
<rect x="516.6" y="114.0" width="11.0" height="11.0" rx="2" fill="#2c2e31"/>
<rect x="516.6" y="128.1" width="11.0" height="11.0" rx="2" fill="#2c2e31"/>
<rect x="516.6" y="142.1" width="11.0" height="11.0" rx="2" fill="#2c2e31"/>
<rect x="516.6" y="156.1" width="11.0" height="11.0" rx="2" fill="#5b4d1f"/>
<rect x="516.6" y="170.1" width="11.0" height="11.0" rx="2" fill="#2c2e31"/>
<rect x="530.7" y="86.0" width="11.0" height="11.0" rx="2" fill="#866d19"/>
<rect x="530.7" y="100.0" width="11.0" height="11.0" rx="2" fill="#2c2e31"/>
<rect x="530.7" y="114.0" width="11.0" height="11.0" rx="2" fill="#2c2e31"/>
<rect x="530.7" y="128.1" width="11.0" height="11.0" rx="2" fill="#2c2e31"/>
<rect x="530.7" y="142.1" width="11.0" height="11.0" rx="2" fill="#2c2e31"/>
<rect x="530.7" y="156.1" width="11.0" height="11.0" rx="2" fill="#5b4d1f"/>
<rect x="530.7" y="170.1" width="11.0" height="11.0" rx="2" fill="#2c2e31"/>
<rect x="544.7" y="86.0" width="11.0" height="11.0" rx="2" fill="#2c2e31"/>
<rect x="544.7" y="100.0" width="11.0" height="11.0" rx="2" fill="#2c2e31"/>
<rect x="544.7" y="114.0" width="11.0" height="11.0" rx="2" fill="#2c2e31"/>
<rect x="544.7" y="128.1" width="11.0" height="11.0" rx="2" fill="#5b4d1f"/>
<rect x="544.7" y="142.1" width="11.0" height="11.0" rx="2" fill="#866d19"/>
<rect x="544.7" y="156.1" width="11.0" height="11.0" rx="2" fill="#5b4d1f"/>
<rect x="544.7" y="170.1" width="11.0" height="11.0" rx="2" fill="#2c2e31"/>
<text x="558.7" y="78.0" font-size="11" fill="#646669" text-anchor="start">jun</text>
<rect x="558.7" y="86.0" width="11.0" height="11.0" rx="2" fill="#2c2e31"/>
<rect x="558.7" y="100.0" width="11.0" height="11.0" rx="2" fill="#2c2e31"/>
<rect x="558.7" y="114.0" width="11.0" height="11.0" rx="2" fill="#2c2e31"/>
<rect x="558.7" y="128.1" width="11.0" height="11.0" rx="2" fill="#2c2e31"/>
<rect x="558.7" y="142.1" width="11.0" height="11.0" rx="2" fill="#2c2e31"/>
<rect x="558.7" y="156.1" width="11.0" height="11.0" rx="2" fill="#2c2e31"/>
<rect x="558.7" y="170.1" width="11.0" height="11.0" rx="2" fill="#2c2e31"/>
<rect x="572.7" y="86.0" width="11.0" height="11.0" rx="2" fill="#2c2e31"/>
<rect x="572.7" y="100.0" width="11.0" height="11.0" rx="2" fill="#2c2e31"/>
<rect x="572.7" y="114.0" width="11.0" height="11.0" rx="2" fill="#2c2e31"/>
<rect x="572.7" y="128.1" width="11.0" height="11.0" rx="2" fill="#2c2e31"/>
<rect x="572.7" y="142.1" width="11.0" height="11.0" rx="2" fill="#2c2e31"/>
<rect x="572.7" y="156.1" width="11.0" height="11.0" rx="2" fill="#2c2e31"/>
<rect x="572.7" y="170.1" width="11.0" height="11.0" rx="2" fill="#2c2e31"/>
<rect x="586.7" y="86.0" width="11.0" height="11.0" rx="2" fill="#5b4d1f"/>
<rect x="586.7" y="100.0" width="11.0" height="11.0" rx="2" fill="#2c2e31"/>
<rect x="586.7" y="114.0" width="11.0" height="11.0" rx="2" fill="#5b4d1f"/>
<rect x="586.7" y="128.1" width="11.0" height="11.0" rx="2" fill="#2c2e31"/>
<rect x="586.7" y="142.1" width="11.0" height="11.0" rx="2" fill="#5b4d1f"/>
<rect x="586.7" y="156.1" width="11.0" height="11.0" rx="2" fill="#2c2e31"/>
<rect x="586.7" y="170.1" width="11.0" height="11.0" rx="2" fill="#2c2e31"/>
<rect x="600.8" y="86.0" width="11.0" height="11.0" rx="2" fill="#2c2e31"/>
<rect x="600.8" y="100.0" width="11.0" height="11.0" rx="2" fill="#2c2e31"/>
<rect x="600.8" y="114.0" width="11.0" height="11.0" rx="2" fill="#2c2e31"/>
<rect x="600.8" y="128.1" width="11.0" height="11.0" rx="2" fill="#2c2e31"/>
<rect x="600.8" y="142.1" width="11.0" height="11.0" rx="2" fill="#2c2e31"/>
<rect x="600.8" y="156.1" width="11.0" height="11.0" rx="2" fill="#2c2e31"/>
<rect x="600.8" y="170.1" width="11.0" height="11.0" rx="2" fill="#2c2e31"/>
<text x="614.8" y="78.0" font-size="11" fill="#646669" text-anchor="start">jul</text>
<rect x="614.8" y="86.0" width="11.0" height="11.0" rx="2" fill="#2c2e31"/>
<rect x="614.8" y="100.0" width="11.0" height="11.0" rx="2" fill="#2c2e31"/>
<rect x="614.8" y="114.0" width="11.0" height="11.0" rx="2" fill="#2c2e31"/>
<rect x="614.8" y="128.1" width="11.0" height="11.0" rx="2" fill="#2c2e31"/>
<rect x="614.8" y="142.1" width="11.0" height="11.0" rx="2" fill="#2c2e31"/>
<rect x="614.8" y="156.1" width="11.0" height="11.0" rx="2" fill="#2c2e31"/>
<rect x="614.8" y="170.1" width="11.0" height="11.0" rx="2" fill="#2c2e31"/>
<rect x="628.8" y="86.0" width="11.0" height="11.0" rx="2" fill="#2c2e31"/>
<rect x="628.8" y="100.0" width="11.0" height="11.0" rx="2" fill="#2c2e31"/>
<rect x="628.8" y="114.0" width="11.0" height="11.0" rx="2" fill="#2c2e31"/>
<rect x="628.8" y="128.1" width="11.0" height="11.0" rx="2" fill="#2c2e31"/>
<rect x="628.8" y="142.1" width="11.0" height="11.0" rx="2" fill="#2c2e31"/>
<rect x="628.8" y="156.1" width="11.0" height="11.0" rx="2" fill="#2c2e31"/>
<rect x="628.8" y="170.1" width="11.0" height="11.0" rx="2" fill="#2c2e31"/>
<rect x="642.8" y="86.0" width="11.0" height="11.0" rx="2" fill="#2c2e31"/>
<rect x="642.8" y="100.0" width="11.0" height="11.0" rx="2" fill="#2c2e31"/>
<rect x="642.8" y="114.0" width="11.0" height="11.0" rx="2" fill="#2c2e31"/>
<rect x="642.8" y="128.1" width="11.0" height="11.0" rx="2" fill="#2c2e31"/>
<rect x="642.8" y="142.1" width="11.0" height="11.0" rx="2" fill="#2c2e31"/>
<rect x="642.8" y="156.1" width="11.0" height="11.0" rx="2" fill="#2c2e31"/>
<rect x="642.8" y="170.1" width="11.0" height="11.0" rx="2" fill="#2c2e31"/>
<rect x="656.8" y="86.0" width="11.0" height="11.0" rx="2" fill="#5b4d1f"/>
<rect x="656.8" y="100.0" width="11.0" height="11.0" rx="2" fill="#2c2e31"/>
<rect x="656.8" y="114.0" width="11.0" height="11.0" rx="2" fill="#5b4d1f"/>
<rect x="656.8" y="128.1" width="11.0" height="11.0" rx="2" fill="#2c2e31"/>
<rect x="656.8" y="142.1" width="11.0" height="11.0" rx="2" fill="#2c2e31"/>
<rect x="656.8" y="156.1" width="11.0" height="11.0" rx="2" fill="#2c2e31"/>
<rect x="656.8" y="170.1" width="11.0" height="11.0" rx="2" fill="#5b4d1f"/>
<text x="670.8" y="78.0" font-size="11" fill="#646669" text-anchor="start">aug</text>
<rect x="670.8" y="86.0" width="11.0" height="11.0" rx="2" fill="#5b4d1f"/>
<rect x="670.8" y="100.0" width="11.0" height="11.0" rx="2" fill="#5b4d1f"/>
<rect x="670.8" y="114.0" width="11.0" height="11.0" rx="2" fill="#2c2e31"/>
<rect x="670.8" y="128.1" width="11.0" height="11.0" rx="2" fill="#2c2e31"/>
<rect x="670.8" y="142.1" width="11.0" height="11.0" rx="2" fill="#2c2e31"/>
<rect x="670.8" y="156.1" width="11.0" height="11.0" rx="2" fill="#5b4d1f"/>
<rect x="670.8" y="170.1" width="11.0" height="11.0" rx="2" fill="#2c2e31"/>
<rect x="684.9" y="86.0" width="11.0" height="11.0" rx="2" fill="#5b4d1f"/>
<rect x="684.9" y="100.0" width="11.0" height="11.0" rx="2" fill="#5b4d1f"/>
<rect x="684.9" y="114.0" width="11.0" height="11.0" rx="2" fill="#2c2e31"/>
<rect x="684.9" y="128.1" width="11.0" height="11.0" rx="2" fill="#2c2e31"/>
<rect x="684.9" y="142.1" width="11.0" height="11.0" rx="2" fill="#5b4d1f"/>
<rect x="684.9" y="156.1" width="11.0" height="11.0" rx="2" fill="#2c2e31"/>
<rect x="684.9" y="170.1" width="11.0" height="11.0" rx="2" fill="#2c2e31"/>
<rect x="698.9" y="86.0" width="11.0" height="11.0" rx="2" fill="#2c2e31"/>
<rect x="698.9" y="100.0" width="11.0" height="11.0" rx="2" fill="#5b4d1f"/>
<rect x="698.9" y="114.0" width="11.0" height="11.0" rx="2" fill="#2c2e31"/>
<rect x="698.9" y="128.1" width="11.0" height="11.0" rx="2" fill="#2c2e31"/>
<rect x="698.9" y="142.1" width="11.0" height="11.0" rx="2" fill="#2c2e31"/>
<rect x="698.9" y="156.1" width="11.0" height="11.0" rx="2" fill="#5b4d1f"/>
<rect x="698.9" y="170.1" width="11.0" height="11.0" rx="2" fill="#5b4d1f"/>
<rect x="712.9" y="86.0" width="11.0" height="11.0" rx="2" fill="#5b4d1f"/>
<rect x="712.9" y="100.0" width="11.0" height="11.0" rx="2" fill="#2c2e31"/>
<rect x="712.9" y="114.0" width="11.0" height="11.0" rx="2" fill="#5b4d1f"/>
<rect x="712.9" y="128.1" width="11.0" height="11.0" rx="2" fill="#5b4d1f"/>
<rect x="712.9" y="142.1" width="11.0" height="11.0" rx="2" fill="#5b4d1f"/>
<rect x="712.9" y="156.1" width="11.0" height="11.0" rx="2" fill="#2c2e31"/>
<rect x="712.9" y="170.1" width="11.0" height="11.0" rx="2" fill="#2c2e31"/>
<rect x="726.9" y="86.0" width="11.0" height="11.0" rx="2" fill="#2c2e31"/>
<rect x="726.9" y="100.0" width="11.0" height="11.0" rx="2" fill="#2c2e31"/>
<rect x="726.9" y="114.0" width="11.0" height="11.0" rx="2" fill="#2c2e31"/>
<rect x="726.9" y="128.1" width="11.0" height="11.0" rx="2" fill="#2c2e31"/>
<rect x="726.9" y="142.1" width="11.0" height="11.0" rx="2" fill="#2c2e31"/>
<rect x="726.9" y="156.1" width="11.0" height="11.0" rx="2" fill="#2c2e31"/>
<rect x="726.9" y="170.1" width="11.0" height="11.0" rx="2" fill="#2c2e31"/>
<text x="740.9" y="78.0" font-size="11" fill="#646669" text-anchor="start">sep</text>
<rect x="740.9" y="86.0" width="11.0" height="11.0" rx="2" fill="#2c2e31"/>
<rect x="740.9" y="100.0" width="11.0" height="11.0" rx="2" fill="#2c2e31"/>
<rect x="740.9" y="114.0" width="11.0" height="11.0" rx="2" fill="#2c2e31"/>
<rect x="740.9" y="128.1" width="11.0" height="11.0" rx="2" fill="#2c2e31"/>
<rect x="740.9" y="142.1" width="11.0" height="11.0" rx="2" fill="#2c2e31"/>
<rect x="740.9" y="156.1" width="11.0" height="11.0" rx="2" fill="#2c2e31"/>
<rect x="740.9" y="170.1" width="11.0" height="11.0" rx="2" fill="#2c2e31"/>
<rect x="755.0" y="86.0" width="11.0" height="11.0" rx="2" fill="#2c2e31"/>
<rect x="755.0" y="100.0" width="11.0" height="11.0" rx="2" fill="#2c2e31"/>
<rect x="755.0" y="114.0" width="11.0" height="11.0" rx="2" fill="#2c2e31"/>
<rect x="755.0" y="128.1" width="11.0" height="11.0" rx="2" fill="#2c2e31"/>
<rect x="755.0" y="142.1" width="11.0" height="11.0" rx="2" fill="#2c2e31"/>
<rect x="755.0" y="156.1" width="11.0" height="11.0" rx="2" fill="#5b4d1f"/>
<rect x="755.0" y="170.1" width="11.0" height="11.0" rx="2" fill="#e2b714"/>
<rect x="769.0" y="86.0" width="11.0" height="11.0" rx="2" fill="#866d19"/>
<rect x="769.0" y="100.0" width="11.0" height="11.0" rx="2" fill="#5b4d1f"/>
<rect x="769.0" y="114.0" width="11.0" height="11.0" rx="2" fill="#866d19"/>
<rect x="769.0" y="128.1" width="11.0" height="11.0" rx="2" fill="#b39212"/>
<rect x="769.0" y="142.1" width="11.0" height="11.0" rx="2" fill="#866d19"/>
<text x="40.0" y="218.1" font-size="12" fill="#646669" text-anchor="start">public repos</text>
<text x="40.0" y="246.1" font-size="22" fill="#d1d0c5" text-anchor="start">19</text>
<text x="225.0" y="218.1" font-size="12" fill="#646669" text-anchor="start">stars</text>
<text x="225.0" y="246.1" font-size="22" fill="#d1d0c5" text-anchor="start">4</text>
<text x="410.0" y="218.1" font-size="12" fill="#646669" text-anchor="start">current streak</text>
<text x="410.0" y="246.1" font-size="22" fill="#d1d0c5" text-anchor="start">7d</text>
<text x="595.0" y="218.1" font-size="12" fill="#646669" text-anchor="start">longest streak</text>
<text x="595.0" y="246.1" font-size="22" fill="#d1d0c5" text-anchor="start">7d</text>
<text x="40.0" y="276.1" font-size="12" fill="#646669" text-anchor="start">top languages</text>
<clipPath id="bar"><rect x="40" y="288.1320754716981" width="740" height="10" rx="5"/></clipPath>
<rect x="40.0" y="288.1320754716981" width="559.2" height="10" fill="#e2b714" clip-path="url(#bar)"/>
<rect x="40.0" y="312.1320754716981" width="9" height="9" rx="2" fill="#e2b714"/>
<text x="54.0" y="321.1" font-size="12" fill="#d1d0c5" text-anchor="start">typescript 75%</text>
<rect x="598.7" y="288.1320754716981" width="102.1" height="10" fill="#d1d0c5" clip-path="url(#bar)"/>
<rect x="180.2" y="312.1320754716981" width="9" height="9" rx="2" fill="#d1d0c5"/>
<text x="194.2" y="321.1" font-size="12" fill="#d1d0c5" text-anchor="start">python 14%</text>
<rect x="700.2" y="288.1320754716981" width="41.3" height="10" fill="#b39212" clip-path="url(#bar)"/>
<rect x="290.6" y="312.1320754716981" width="9" height="9" rx="2" fill="#b39212"/>
<text x="304.6" y="321.1" font-size="12" fill="#d1d0c5" text-anchor="start">kotlin 6%</text>
<rect x="741.0" y="288.1320754716981" width="18.1" height="10" fill="#8d8c85" clip-path="url(#bar)"/>
<rect x="393.5" y="312.1320754716981" width="9" height="9" rx="2" fill="#8d8c85"/>
<text x="407.5" y="321.1" font-size="12" fill="#d1d0c5" text-anchor="start">html 2%</text>
<rect x="758.6" y="288.1320754716981" width="13.1" height="10" fill="#866d19" clip-path="url(#bar)"/>
<rect x="481.6" y="312.1320754716981" width="9" height="9" rx="2" fill="#866d19"/>
<text x="495.6" y="321.1" font-size="12" fill="#d1d0c5" text-anchor="start">shell 2%</text>
<rect x="771.2" y="288.1320754716981" width="9.3" height="10" fill="#646669" clip-path="url(#bar)"/>
<rect x="577.1" y="312.1320754716981" width="9" height="9" rx="2" fill="#646669"/>
<text x="591.1" y="321.1" font-size="12" fill="#d1d0c5" text-anchor="start">javascript 1%</text>
</svg>
