<svg xmlns="http://www.w3.org/2000/svg" xmlns:xlink="http://www.w3.org/1999/xlink" viewBox="0 0 820 342.1320754716981" width="820" height="342.1320754716981" font-family="'Roboto Mono', 'Fira Code', Consolas, 'DejaVu Sans Mono', monospace">
<rect width="820" height="342.1320754716981" rx="14" fill="#323437"/>
<text x="40.0" y="44.0" font-size="20" fill="#e2b714" text-anchor="start" font-weight="700">github activity</text>
<text x="780.0" y="44.0" font-size="15" fill="#646669" text-anchor="end">555 contributions in the last year</text>
<rect x="40.0" y="86.0" width="11.0" height="11.0" rx="2" fill="#2c2e31"></rect>
<rect x="40.0" y="100.0" width="11.0" height="11.0" rx="2" fill="#2c2e31"></rect>
<rect x="40.0" y="114.0" width="11.0" height="11.0" rx="2" fill="#2c2e31"></rect>
<rect x="40.0" y="128.1" width="11.0" height="11.0" rx="2" fill="#2c2e31"></rect>
<rect x="40.0" y="142.1" width="11.0" height="11.0" rx="2" fill="#2c2e31"></rect>
<rect x="40.0" y="156.1" width="11.0" height="11.0" rx="2" fill="#2c2e31"></rect>
<rect x="40.0" y="170.1" width="11.0" height="11.0" rx="2" fill="#2c2e31"></rect>
<rect x="54.0" y="86.0" width="11.0" height="11.0" rx="2" fill="#2c2e31"></rect>
<rect x="54.0" y="100.0" width="11.0" height="11.0" rx="2" fill="#2c2e31"></rect>
<rect x="54.0" y="114.0" width="11.0" height="11.0" rx="2" fill="#2c2e31"></rect>
<rect x="54.0" y="128.1" width="11.0" height="11.0" rx="2" fill="#2c2e31"></rect>
<rect x="54.0" y="142.1" width="11.0" height="11.0" rx="2" fill="#2c2e31"></rect>
<rect x="54.0" y="156.1" width="11.0" height="11.0" rx="2" fill="#2c2e31"></rect>
<rect x="54.0" y="170.1" width="11.0" height="11.0" rx="2" fill="#635728"><animate attributeName="fill" values="#2c2e31;#2c2e31;#ffd84a;#635728;#635728;#2c2e31" keyTimes="0.0000;0.0388;0.0437;0.0777;0.9612;1.0000" dur="10.3s" repeatCount="indefinite"/></rect>
<text x="68.0" y="78.0" font-size="11" fill="#646669" text-anchor="start">oct</text>
<rect x="68.0" y="86.0" width="11.0" height="11.0" rx="2" fill="#2c2e31"></rect>
<rect x="68.0" y="100.0" width="11.0" height="11.0" rx="2" fill="#2c2e31"></rect>
<rect x="68.0" y="114.0" width="11.0" height="11.0" rx="2" fill="#2c2e31"></rect>
<rect x="68.0" y="128.1" width="11.0" height="11.0" rx="2" fill="#2c2e31"></rect>
<rect x="68.0" y="142.1" width="11.0" height="11.0" rx="2" fill="#2c2e31"></rect>
<rect x="68.0" y="156.1" width="11.0" height="11.0" rx="2" fill="#2c2e31"></rect>
<rect x="68.0" y="170.1" width="11.0" height="11.0" rx="2" fill="#2c2e31"></rect>
<rect x="82.1" y="86.0" width="11.0" height="11.0" rx="2" fill="#2c2e31"></rect>
<rect x="82.1" y="100.0" width="11.0" height="11.0" rx="2" fill="#2c2e31"></rect>
<rect x="82.1" y="114.0" width="11.0" height="11.0" rx="2" fill="#2c2e31"></rect>
<rect x="82.1" y="128.1" width="11.0" height="11.0" rx="2" fill="#2c2e31"></rect>
<rect x="82.1" y="142.1" width="11.0" height="11.0" rx="2" fill="#2c2e31"></rect>
<rect x="82.1" y="156.1" width="11.0" height="11.0" rx="2" fill="#2c2e31"></rect>
<rect x="82.1" y="170.1" width="11.0" height="11.0" rx="2" fill="#2c2e31"></rect>
<rect x="96.1" y="86.0" width="11.0" height="11.0" rx="2" fill="#2c2e31"></rect>
<rect x="96.1" y="100.0" width="11.0" height="11.0" rx="2" fill="#2c2e31"></rect>
<rect x="96.1" y="114.0" width="11.0" height="11.0" rx="2" fill="#2c2e31"></rect>
<rect x="96.1" y="128.1" width="11.0" height="11.0" rx="2" fill="#2c2e31"></rect>
<rect x="96.1" y="142.1" width="11.0" height="11.0" rx="2" fill="#2c2e31"></rect>
<rect x="96.1" y="156.1" width="11.0" height="11.0" rx="2" fill="#2c2e31"></rect>
<rect x="96.1" y="170.1" width="11.0" height="11.0" rx="2" fill="#2c2e31"></rect>
<rect x="110.1" y="86.0" width="11.0" height="11.0" rx="2" fill="#2c2e31"></rect>
<rect x="110.1" y="100.0" width="11.0" height="11.0" rx="2" fill="#2c2e31"></rect>
<rect x="110.1" y="114.0" width="11.0" height="11.0" rx="2" fill="#2c2e31"></rect>
<rect x="110.1" y="128.1" width="11.0" height="11.0" rx="2" fill="#2c2e31"></rect>
<rect x="110.1" y="142.1" width="11.0" height="11.0" rx="2" fill="#2c2e31"></rect>
<rect x="110.1" y="156.1" width="11.0" height="11.0" rx="2" fill="#635728"><animate attributeName="fill" values="#2c2e31;#2c2e31;#ffd84a;#635728;#635728;#2c2e31" keyTimes="0.0000;0.0475;0.0524;0.0864;0.9612;1.0000" dur="10.3s" repeatCount="indefinite"/></rect>
<rect x="110.1" y="170.1" width="11.0" height="11.0" rx="2" fill="#2c2e31"></rect>
<text x="124.1" y="78.0" font-size="11" fill="#646669" text-anchor="start">nov</text>
<rect x="124.1" y="86.0" width="11.0" height="11.0" rx="2" fill="#2c2e31"></rect>
<rect x="124.1" y="100.0" width="11.0" height="11.0" rx="2" fill="#2c2e31"></rect>
<rect x="124.1" y="114.0" width="11.0" height="11.0" rx="2" fill="#2c2e31"></rect>
<rect x="124.1" y="128.1" width="11.0" height="11.0" rx="2" fill="#2c2e31"></rect>
<rect x="124.1" y="142.1" width="11.0" height="11.0" rx="2" fill="#2c2e31"></rect>
<rect x="124.1" y="156.1" width="11.0" height="11.0" rx="2" fill="#2c2e31"></rect>
<rect x="124.1" y="170.1" width="11.0" height="11.0" rx="2" fill="#2c2e31"></rect>
<rect x="138.1" y="86.0" width="11.0" height="11.0" rx="2" fill="#2c2e31"></rect>
<rect x="138.1" y="100.0" width="11.0" height="11.0" rx="2" fill="#2c2e31"></rect>
<rect x="138.1" y="114.0" width="11.0" height="11.0" rx="2" fill="#2c2e31"></rect>
<rect x="138.1" y="128.1" width="11.0" height="11.0" rx="2" fill="#2c2e31"></rect>
<rect x="138.1" y="142.1" width="11.0" height="11.0" rx="2" fill="#2c2e31"></rect>
<rect x="138.1" y="156.1" width="11.0" height="11.0" rx="2" fill="#2c2e31"></rect>
<rect x="138.1" y="170.1" width="11.0" height="11.0" rx="2" fill="#2c2e31"></rect>
<rect x="152.2" y="86.0" width="11.0" height="11.0" rx="2" fill="#2c2e31"></rect>
<rect x="152.2" y="100.0" width="11.0" height="11.0" rx="2" fill="#2c2e31"></rect>
<rect x="152.2" y="114.0" width="11.0" height="11.0" rx="2" fill="#635728"><animate attributeName="fill" values="#2c2e31;#2c2e31;#ffd84a;#635728;#635728;#2c2e31" keyTimes="0.0000;0.0562;0.0611;0.0951;0.9612;1.0000" dur="10.3s" repeatCount="indefinite"/></rect>
<rect x="152.2" y="128.1" width="11.0" height="11.0" rx="2" fill="#2c2e31"></rect>
<rect x="152.2" y="142.1" width="11.0" height="11.0" rx="2" fill="#2c2e31"></rect>
<rect x="152.2" y="156.1" width="11.0" height="11.0" rx="2" fill="#2c2e31"></rect>
<rect x="152.2" y="170.1" width="11.0" height="11.0" rx="2" fill="#2c2e31"></rect>
<rect x="166.2" y="86.0" width="11.0" height="11.0" rx="2" fill="#2c2e31"></rect>
<rect x="166.2" y="100.0" width="11.0" height="11.0" rx="2" fill="#2c2e31"></rect>
<rect x="166.2" y="114.0" width="11.0" height="11.0" rx="2" fill="#2c2e31"></rect>
<rect x="166.2" y="128.1" width="11.0" height="11.0" rx="2" fill="#2c2e31"></rect>
<rect x="166.2" y="142.1" width="11.0" height="11.0" rx="2" fill="#2c2e31"></rect>
<rect x="166.2" y="156.1" width="11.0" height="11.0" rx="2" fill="#2c2e31"></rect>
<rect x="166.2" y="170.1" width="11.0" height="11.0" rx="2" fill="#2c2e31"></rect>
<rect x="180.2" y="86.0" width="11.0" height="11.0" rx="2" fill="#2c2e31"></rect>
<rect x="180.2" y="100.0" width="11.0" height="11.0" rx="2" fill="#2c2e31"></rect>
<rect x="180.2" y="114.0" width="11.0" height="11.0" rx="2" fill="#2c2e31"></rect>
<rect x="180.2" y="128.1" width="11.0" height="11.0" rx="2" fill="#2c2e31"></rect>
<rect x="180.2" y="142.1" width="11.0" height="11.0" rx="2" fill="#2c2e31"></rect>
<rect x="180.2" y="156.1" width="11.0" height="11.0" rx="2" fill="#2c2e31"></rect>
<rect x="180.2" y="170.1" width="11.0" height="11.0" rx="2" fill="#2c2e31"></rect>
<text x="194.2" y="78.0" font-size="11" fill="#646669" text-anchor="start">dec</text>
<rect x="194.2" y="86.0" width="11.0" height="11.0" rx="2" fill="#2c2e31"></rect>
<rect x="194.2" y="100.0" width="11.0" height="11.0" rx="2" fill="#2c2e31"></rect>
<rect x="194.2" y="114.0" width="11.0" height="11.0" rx="2" fill="#2c2e31"></rect>
<rect x="194.2" y="128.1" width="11.0" height="11.0" rx="2" fill="#2c2e31"></rect>
<rect x="194.2" y="142.1" width="11.0" height="11.0" rx="2" fill="#2c2e31"></rect>
<rect x="194.2" y="156.1" width="11.0" height="11.0" rx="2" fill="#2c2e31"></rect>
<rect x="194.2" y="170.1" width="11.0" height="11.0" rx="2" fill="#2c2e31"></rect>
<rect x="208.2" y="86.0" width="11.0" height="11.0" rx="2" fill="#2c2e31"></rect>
<rect x="208.2" y="100.0" width="11.0" height="11.0" rx="2" fill="#2c2e31"></rect>
<rect x="208.2" y="114.0" width="11.0" height="11.0" rx="2" fill="#635728"><animate attributeName="fill" values="#2c2e31;#2c2e31;#ffd84a;#635728;#635728;#2c2e31" keyTimes="0.0000;0.0649;0.0698;0.1038;0.9612;1.0000" dur="10.3s" repeatCount="indefinite"/></rect>
<rect x="208.2" y="128.1" width="11.0" height="11.0" rx="2" fill="#2c2e31"></rect>
<rect x="208.2" y="142.1" width="11.0" height="11.0" rx="2" fill="#2c2e31"></rect>
<rect x="208.2" y="156.1" width="11.0" height="11.0" rx="2" fill="#2c2e31"></rect>
<rect x="208.2" y="170.1" width="11.0" height="11.0" rx="2" fill="#2c2e31"></rect>
<rect x="222.2" y="86.0" width="11.0" height="11.0" rx="2" fill="#2c2e31"></rect>
<rect x="222.2" y="100.0" width="11.0" height="11.0" rx="2" fill="#2c2e31"></rect>
<rect x="222.2" y="114.0" width="11.0" height="11.0" rx="2" fill="#2c2e31"></rect>
<rect x="222.2" y="128.1" width="11.0" height="11.0" rx="2" fill="#2c2e31"></rect>
<rect x="222.2" y="142.1" width="11.0" height="11.0" rx="2" fill="#2c2e31"></rect>
<rect x="222.2" y="156.1" width="11.0" height="11.0" rx="2" fill="#2c2e31"></rect>
<rect x="222.2" y="170.1" width="11.0" height="11.0" rx="2" fill="#2c2e31"></rect>
<rect x="236.3" y="86.0" width="11.0" height="11.0" rx="2" fill="#2c2e31"></rect>
<rect x="236.3" y="100.0" width="11.0" height="11.0" rx="2" fill="#2c2e31"></rect>
<rect x="236.3" y="114.0" width="11.0" height="11.0" rx="2" fill="#2c2e31"></rect>
<rect x="236.3" y="128.1" width="11.0" height="11.0" rx="2" fill="#2c2e31"></rect>
<rect x="236.3" y="142.1" width="11.0" height="11.0" rx="2" fill="#2c2e31"></rect>
<rect x="236.3" y="156.1" width="11.0" height="11.0" rx="2" fill="#2c2e31"></rect>
<rect x="236.3" y="170.1" width="11.0" height="11.0" rx="2" fill="#2c2e31"></rect>
<text x="250.3" y="78.0" font-size="11" fill="#646669" text-anchor="start">jan</text>
<rect x="250.3" y="86.0" width="11.0" height="11.0" rx="2" fill="#635728"><animate attributeName="fill" values="#2c2e31;#2c2e31;#ffd84a;#635728;#635728;#2c2e31" keyTimes="0.0000;0.0736;0.0785;0.1124;0.9612;1.0000" dur="10.3s" repeatCount="indefinite"/></rect>
<rect x="250.3" y="100.0" width="11.0" height="11.0" rx="2" fill="#635728"><animate attributeName="fill" values="#2c2e31;#2c2e31;#ffd84a;#635728;#635728;#2c2e31" keyTimes="0.0000;0.0823;0.0872;0.1211;0.9612;1.0000" dur="10.3s" repeatCount="indefinite"/></rect>
<rect x="250.3" y="114.0" width="11.0" height="11.0" rx="2" fill="#635728"><animate attributeName="fill" values="#2c2e31;#2c2e31;#ffd84a;#635728;#635728;#2c2e31" keyTimes="0.0000;0.0910;0.0959;0.1298;0.9612;1.0000" dur="10.3s" repeatCount="indefinite"/></rect>
<rect x="250.3" y="128.1" width="11.0" height="11.0" rx="2" fill="#2c2e31"></rect>
<rect x="250.3" y="142.1" width="11.0" height="11.0" rx="2" fill="#635728"><animate attributeName="fill" values="#2c2e31;#2c2e31;#ffd84a;#635728;#635728;#2c2e31" keyTimes="0.0000;0.0997;0.1046;0.1385;0.9612;1.0000" dur="10.3s" repeatCount="indefinite"/></rect>
<rect x="250.3" y="156.1" width="11.0" height="11.0" rx="2" fill="#2c2e31"></rect>
<rect x="250.3" y="170.1" width="11.0" height="11.0" rx="2" fill="#2c2e31"></rect>
<rect x="264.3" y="86.0" width="11.0" height="11.0" rx="2" fill="#2c2e31"></rect>
<rect x="264.3" y="100.0" width="11.0" height="11.0" rx="2" fill="#635728"><animate attributeName="fill" values="#2c2e31;#2c2e31;#ffd84a;#635728;#635728;#2c2e31" keyTimes="0.0000;0.1084;0.1132;0.1472;0.9612;1.0000" dur="10.3s" repeatCount="indefinite"/></rect>
<rect x="264.3" y="114.0" width="11.0" height="11.0" rx="2" fill="#635728"><animate attributeName="fill" values="#2c2e31;#2c2e31;#ffd84a;#635728;#635728;#2c2e31" keyTimes="0.0000;0.1171;0.1219;0.1559;0.9612;1.0000" dur="10.3s" repeatCount="indefinite"/></rect>
<rect x="264.3" y="128.1" width="11.0" height="11.0" rx="2" fill="#2c2e31"></rect>
<rect x="264.3" y="142.1" width="11.0" height="11.0" rx="2" fill="#2c2e31"></rect>
<rect x="264.3" y="156.1" width="11.0" height="11.0" rx="2" fill="#2c2e31"></rect>
<rect x="264.3" y="170.1" width="11.0" height="11.0" rx="2" fill="#2c2e31"></rect>
<rect x="278.3" y="86.0" width="11.0" height="11.0" rx="2" fill="#2c2e31"></rect>
<rect x="278.3" y="100.0" width="11.0" height="11.0" rx="2" fill="#2c2e31"></rect>
<rect x="278.3" y="114.0" width="11.0" height="11.0" rx="2" fill="#2c2e31"></rect>
<rect x="278.3" y="128.1" width="11.0" height="11.0" rx="2" fill="#2c2e31"></rect>
<rect x="278.3" y="142.1" width="11.0" height="11.0" rx="2" fill="#2c2e31"></rect>
<rect x="278.3" y="156.1" width="11.0" height="11.0" rx="2" fill="#2c2e31"></rect>
<rect x="278.3" y="170.1" width="11.0" height="11.0" rx="2" fill="#2c2e31"></rect>
<rect x="292.3" y="86.0" width="11.0" height="11.0" rx="2" fill="#2c2e31"></rect>
<rect x="292.3" y="100.0" width="11.0" height="11.0" rx="2" fill="#2c2e31"></rect>
<rect x="292.3" y="114.0" width="11.0" height="11.0" rx="2" fill="#2c2e31"></rect>
<rect x="292.3" y="128.1" width="11.0" height="11.0" rx="2" fill="#2c2e31"></rect>
<rect x="292.3" y="142.1" width="11.0" height="11.0" rx="2" fill="#2c2e31"></rect>
<rect x="292.3" y="156.1" width="11.0" height="11.0" rx="2" fill="#2c2e31"></rect>
<rect x="292.3" y="170.1" width="11.0" height="11.0" rx="2" fill="#2c2e31"></rect>
<text x="306.4" y="78.0" font-size="11" fill="#646669" text-anchor="start">feb</text>
<rect x="306.4" y="86.0" width="11.0" height="11.0" rx="2" fill="#2c2e31"></rect>
<rect x="306.4" y="100.0" width="11.0" height="11.0" rx="2" fill="#635728"><animate attributeName="fill" values="#2c2e31;#2c2e31;#ffd84a;#635728;#635728;#2c2e31" keyTimes="0.0000;0.1258;0.1306;0.1646;0.9612;1.0000" dur="10.3s" repeatCount="indefinite"/></rect>
<rect x="306.4" y="114.0" width="11.0" height="11.0" rx="2" fill="#2c2e31"></rect>
<rect x="306.4" y="128.1" width="11.0" height="11.0" rx="2" fill="#2c2e31"></rect>
<rect x="306.4" y="142.1" width="11.0" height="11.0" rx="2" fill="#2c2e31"></rect>
<rect x="306.4" y="156.1" width="11.0" height="11.0" rx="2" fill="#635728"><animate attributeName="fill" values="#2c2e31;#2c2e31;#ffd84a;#635728;#635728;#2c2e31" keyTimes="0.0000;0.1345;0.1393;0.1733;0.9612;1.0000" dur="10.3s" repeatCount="indefinite"/></rect>
<rect x="306.4" y="170.1" width="11.0" height="11.0" rx="2" fill="#2c2e31"></rect>
<rect x="320.4" y="86.0" width="11.0" height="11.0" rx="2" fill="#2c2e31"></rect>
<rect x="320.4" y="100.0" width="11.0" height="11.0" rx="2" fill="#2c2e31"></rect>
<rect x="320.4" y="114.0" width="11.0" height="11.0" rx="2" fill="#2c2e31"></rect>
<rect x="320.4" y="128.1" width="11.0" height="11.0" rx="2" fill="#2c2e31"></rect>
<rect x="320.4" y="142.1" width="11.0" height="11.0" rx="2" fill="#2c2e31"></rect>
<rect x="320.4" y="156.1" width="11.0" height="11.0" rx="2" fill="#2c2e31"></rect>
<rect x="320.4" y="170.1" width="11.0" height="11.0" rx="2" fill="#2c2e31"></rect>
<rect x="334.4" y="86.0" width="11.0" height="11.0" rx="2" fill="#2c2e31"></rect>
<rect x="334.4" y="100.0" width="11.0" height="11.0" rx="2" fill="#2c2e31"></rect>
<rect x="334.4" y="114.0" width="11.0" height="11.0" rx="2" fill="#2c2e31"></rect>
<rect x="334.4" y="128.1" width="11.0" height="11.0" rx="2" fill="#2c2e31"></rect>
<rect x="334.4" y="142.1" width="11.0" height="11.0" rx="2" fill="#2c2e31"></rect>
<rect x="334.4" y="156.1" width="11.0" height="11.0" rx="2" fill="#635728"><animate attributeName="fill" values="#2c2e31;#2c2e31;#ffd84a;#635728;#635728;#2c2e31" keyTimes="0.0000;0.1432;0.1480;0.1820;0.9612;1.0000" dur="10.3s" repeatCount="indefinite"/></rect>
<rect x="334.4" y="170.1" width="11.0" height="11.0" rx="2" fill="#2c2e31"></rect>
<rect x="348.4" y="86.0" width="11.0" height="11.0" rx="2" fill="#2c2e31"></rect>
<rect x="348.4" y="100.0" width="11.0" height="11.0" rx="2" fill="#b4951b"><animate attributeName="fill" values="#2c2e31;#2c2e31;#ffd84a;#b4951b;#b4951b;#2c2e31" keyTimes="0.0000;0.1519;0.1567;0.1907;0.9612;1.0000" dur="10.3s" repeatCount="indefinite"/></rect>
<rect x="348.4" y="114.0" width="11.0" height="11.0" rx="2" fill="#635728"><animate attributeName="fill" values="#2c2e31;#2c2e31;#ffd84a;#635728;#635728;#2c2e31" keyTimes="0.0000;0.1606;0.1654;0.1994;0.9612;1.0000" dur="10.3s" repeatCount="indefinite"/></rect>
<rect x="348.4" y="128.1" width="11.0" height="11.0" rx="2" fill="#635728"><animate attributeName="fill" values="#2c2e31;#2c2e31;#ffd84a;#635728;#635728;#2c2e31" keyTimes="0.0000;0.1693;0.1741;0.2081;0.9612;1.0000" dur="10.3s" repeatCount="indefinite"/></rect>
<rect x="348.4" y="142.1" width="11.0" height="11.0" rx="2" fill="#635728"><animate attributeName="fill" values="#2c2e31;#2c2e31;#ffd84a;#635728;#635728;#2c2e31" keyTimes="0.0000;0.1779;0.1828;0.2168;0.9612;1.0000" dur="10.3s" repeatCount="indefinite"/></rect>
<rect x="348.4" y="156.1" width="11.0" height="11.0" rx="2" fill="#2c2e31"></rect>
<rect x="348.4" y="170.1" width="11.0" height="11.0" rx="2" fill="#2c2e31"></rect>
<text x="362.4" y="78.0" font-size="11" fill="#646669" text-anchor="start">mar</text>
<rect x="362.4" y="86.0" width="11.0" height="11.0" rx="2" fill="#2c2e31"></rect>
<rect x="362.4" y="100.0" width="11.0" height="11.0" rx="2" fill="#2c2e31"></rect>
<rect x="362.4" y="114.0" width="11.0" height="11.0" rx="2" fill="#2c2e31"></rect>
<rect x="362.4" y="128.1" width="11.0" height="11.0" rx="2" fill="#635728"><animate attributeName="fill" values="#2c2e31;#2c2e31;#ffd84a;#635728;#635728;#2c2e31" keyTimes="0.0000;0.1866;0.1915;0.2255;0.9612;1.0000" dur="10.3s" repeatCount="indefinite"/></rect>
<rect x="362.4" y="142.1" width="11.0" height="11.0" rx="2" fill="#635728"><animate attributeName="fill" values="#2c2e31;#2c2e31;#ffd84a;#635728;#635728;#2c2e31" keyTimes="0.0000;0.1953;0.2002;0.2342;0.9612;1.0000" dur="10.3s" repeatCount="indefinite"/></rect>
<rect x="362.4" y="156.1" width="11.0" height="11.0" rx="2" fill="#635728"><animate attributeName="fill" values="#2c2e31;#2c2e31;#ffd84a;#635728;#635728;#2c2e31" keyTimes="0.0000;0.2040;0.2089;0.2429;0.9612;1.0000" dur="10.3s" repeatCount="indefinite"/></rect>
<rect x="362.4" y="170.1" width="11.0" height="11.0" rx="2" fill="#2c2e31"></rect>
<rect x="376.5" y="86.0" width="11.0" height="11.0" rx="2" fill="#2c2e31"></rect>
<rect x="376.5" y="100.0" width="11.0" height="11.0" rx="2" fill="#2c2e31"></rect>
<rect x="376.5" y="114.0" width="11.0" height="11.0" rx="2" fill="#635728"><animate attributeName="fill" values="#2c2e31;#2c2e31;#ffd84a;#635728;#635728;#2c2e31" keyTimes="0.0000;0.2127;0.2176;0.2516;0.9612;1.0000" dur="10.3s" repeatCount="indefinite"/></rect>
<rect x="376.5" y="128.1" width="11.0" height="11.0" rx="2" fill="#2c2e31"></rect>
<rect x="376.5" y="142.1" width="11.0" height="11.0" rx="2" fill="#2c2e31"></rect>
<rect x="376.5" y="156.1" width="11.0" height="11.0" rx="2" fill="#635728"><animate attributeName="fill" values="#2c2e31;#2c2e31;#ffd84a;#635728;#635728;#2c2e31" keyTimes="0.0000;0.2214;0.2263;0.2603;0.9612;1.0000" dur="10.3s" repeatCount="indefinite"/></rect>
<rect x="376.5" y="170.1" width="11.0" height="11.0" rx="2" fill="#2c2e31"></rect>
<rect x="390.5" y="86.0" width="11.0" height="11.0" rx="2" fill="#2c2e31"></rect>
<rect x="390.5" y="100.0" width="11.0" height="11.0" rx="2" fill="#2c2e31"></rect>
<rect x="390.5" y="114.0" width="11.0" height="11.0" rx="2" fill="#2c2e31"></rect>
<rect x="390.5" y="128.1" width="11.0" height="11.0" rx="2" fill="#2c2e31"></rect>
<rect x="390.5" y="142.1" width="11.0" height="11.0" rx="2" fill="#2c2e31"></rect>
<rect x="390.5" y="156.1" width="11.0" height="11.0" rx="2" fill="#2c2e31"></rect>
<rect x="390.5" y="170.1" width="11.0" height="11.0" rx="2" fill="#2c2e31"></rect>
<rect x="404.5" y="86.0" width="11.0" height="11.0" rx="2" fill="#2c2e31"></rect>
<rect x="404.5" y="100.0" width="11.0" height="11.0" rx="2" fill="#635728"><animate attributeName="fill" values="#2c2e31;#2c2e31;#ffd84a;#635728;#635728;#2c2e31" keyTimes="0.0000;0.2301;0.2350;0.2689;0.9612;1.0000" dur="10.3s" repeatCount="indefinite"/></rect>
<rect x="404.5" y="114.0" width="11.0" height="11.0" rx="2" fill="#635728"><animate attributeName="fill" values="#2c2e31;#2c2e31;#ffd84a;#635728;#635728;#2c2e31" keyTimes="0.0000;0.2388;0.2437;0.2776;0.9612;1.0000" dur="10.3s" repeatCount="indefinite"/></rect>
<rect x="404.5" y="128.1" width="11.0" height="11.0" rx="2" fill="#2c2e31"></rect>
<rect x="404.5" y="142.1" width="11.0" height="11.0" rx="2" fill="#2c2e31"></rect>
<rect x="404.5" y="156.1" width="11.0" height="11.0" rx="2" fill="#2c2e31"></rect>
<rect x="404.5" y="170.1" width="11.0" height="11.0" rx="2" fill="#2c2e31"></rect>
<rect x="418.5" y="86.0" width="11.0" height="11.0" rx="2" fill="#2c2e31"></rect>
<rect x="418.5" y="100.0" width="11.0" height="11.0" rx="2" fill="#2c2e31"></rect>
<rect x="418.5" y="114.0" width="11.0" height="11.0" rx="2" fill="#2c2e31"></rect>
<rect x="418.5" y="128.1" width="11.0" height="11.0" rx="2" fill="#2c2e31"></rect>
<rect x="418.5" y="142.1" width="11.0" height="11.0" rx="2" fill="#2c2e31"></rect>
<rect x="418.5" y="156.1" width="11.0" height="11.0" rx="2" fill="#2c2e31"></rect>
<rect x="418.5" y="170.1" width="11.0" height="11.0" rx="2" fill="#2c2e31"></rect>
<text x="432.5" y="78.0" font-size="11" fill="#646669" text-anchor="start">apr</text>
<rect x="432.5" y="86.0" width="11.0" height="11.0" rx="2" fill="#2c2e31"></rect>
<rect x="432.5" y="100.0" width="11.0" height="11.0" rx="2" fill="#2c2e31"></rect>
<rect x="432.5" y="114.0" width="11.0" height="11.0" rx="2" fill="#2c2e31"></rect>
<rect x="432.5" y="128.1" width="11.0" height="11.0" rx="2" fill="#2c2e31"></rect>
<rect x="432.5" y="142.1" width="11.0" height="11.0" rx="2" fill="#2c2e31"></rect>
<rect x="432.5" y="156.1" width="11.0" height="11.0" rx="2" fill="#2c2e31"></rect>
<rect x="432.5" y="170.1" width="11.0" height="11.0" rx="2" fill="#2c2e31"></rect>
<rect x="446.5" y="86.0" width="11.0" height="11.0" rx="2" fill="#2c2e31"></rect>
<rect x="446.5" y="100.0" width="11.0" height="11.0" rx="2" fill="#2c2e31"></rect>
<rect x="446.5" y="114.0" width="11.0" height="11.0" rx="2" fill="#2c2e31"></rect>
<rect x="446.5" y="128.1" width="11.0" height="11.0" rx="2" fill="#2c2e31"></rect>
<rect x="446.5" y="142.1" width="11.0" height="11.0" rx="2" fill="#2c2e31"></rect>
<rect x="446.5" y="156.1" width="11.0" height="11.0" rx="2" fill="#2c2e31"></rect>
<rect x="446.5" y="170.1" width="11.0" height="11.0" rx="2" fill="#2c2e31"></rect>
<rect x="460.6" y="86.0" width="11.0" height="11.0" rx="2" fill="#2c2e31"></rect>
<rect x="460.6" y="100.0" width="11.0" height="11.0" rx="2" fill="#635728"><animate attributeName="fill" values="#2c2e31;#2c2e31;#ffd84a;#635728;#635728;#2c2e31" keyTimes="0.0000;0.2475;0.2524;0.2863;0.9612;1.0000" dur="10.3s" repeatCount="indefinite"/></rect>
<rect x="460.6" y="114.0" width="11.0" height="11.0" rx="2" fill="#2c2e31"></rect>
<rect x="460.6" y="128.1" width="11.0" height="11.0" rx="2" fill="#2c2e31"></rect>
<rect x="460.6" y="142.1" width="11.0" height="11.0" rx="2" fill="#2c2e31"></rect>
<rect x="460.6" y="156.1" width="11.0" height="11.0" rx="2" fill="#635728"><animate attributeName="fill" values="#2c2e31;#2c2e31;#ffd84a;#635728;#635728;#2c2e31" keyTimes="0.0000;0.2562;0.2610;0.2950;0.9612;1.0000" dur="10.3s" repeatCount="indefinite"/></rect>
<rect x="460.6" y="170.1" width="11.0" height="11.0" rx="2" fill="#877222"><animate attributeName="fill" values="#2c2e31;#2c2e31;#ffd84a;#877222;#877222;#2c2e31" keyTimes="0.0000;0.2649;0.2697;0.3037;0.9612;1.0000" dur="10.3s" repeatCount="indefinite"/></rect>
<rect x="474.6" y="86.0" width="11.0" height="11.0" rx="2" fill="#2c2e31"></rect>
<rect x="474.6" y="100.0" width="11.0" height="11.0" rx="2" fill="#635728"><animate attributeName="fill" values="#2c2e31;#2c2e31;#ffd84a;#635728;#635728;#2c2e31" keyTimes="0.0000;0.2736;0.2784;0.3124;0.9612;1.0000" dur="10.3s" repeatCount="indefinite"/></rect>
<rect x="474.6" y="114.0" width="11.0" height="11.0" rx="2" fill="#2c2e31"></rect>
<rect x="474.6" y="128.1" width="11.0" height="11.0" rx="2" fill="#2c2e31"></rect>
<rect x="474.6" y="142.1" width="11.0" height="11.0" rx="2" fill="#635728"><animate attributeName="fill" values="#2c2e31;#2c2e31;#ffd84a;#635728;#635728;#2c2e31" keyTimes="0.0000;0.2823;0.2871;0.3211;0.9612;1.0000" dur="10.3s" repeatCount="indefinite"/></rect>
<rect x="474.6" y="156.1" width="11.0" height="11.0" rx="2" fill="#635728"><animate attributeName="fill" values="#2c2e31;#2c2e31;#ffd84a;#635728;#635728;#2c2e31" keyTimes="0.0000;0.2910;0.2958;0.3298;0.9612;1.0000" dur="10.3s" repeatCount="indefinite"/></rect>
<rect x="474.6" y="170.1" width="11.0" height="11.0" rx="2" fill="#2c2e31"></rect>
<text x="488.6" y="78.0" font-size="11" fill="#646669" text-anchor="start">may</text>
<rect x="488.6" y="86.0" width="11.0" height="11.0" rx="2" fill="#2c2e31"></rect>
<rect x="488.6" y="100.0" width="11.0" height="11.0" rx="2" fill="#2c2e31"></rect>
<rect x="488.6" y="114.0" width="11.0" height="11.0" rx="2" fill="#635728"><animate attributeName="fill" values="#2c2e31;#2c2e31;#ffd84a;#635728;#635728;#2c2e31" keyTimes="0.0000;0.2997;0.3045;0.3385;0.9612;1.0000" dur="10.3s" repeatCount="indefinite"/></rect>
<rect x="488.6" y="128.1" width="11.0" height="11.0" rx="2" fill="#2c2e31"></rect>
<rect x="488.6" y="142.1" width="11.0" height="11.0" rx="2" fill="#2c2e31"></rect>
<rect x="488.6" y="156.1" width="11.0" height="11.0" rx="2" fill="#2c2e31"></rect>
<rect x="488.6" y="170.1" width="11.0" height="11.0" rx="2" fill="#635728"><animate attributeName="fill" values="#2c2e31;#2c2e31;#ffd84a;#635728;#635728;#2c2e31" keyTimes="0.0000;0.3084;0.3132;0.3472;0.9612;1.0000" dur="10.3s" repeatCount="indefinite"/></rect>
<rect x="502.6" y="86.0" width="11.0" height="11.0" rx="2" fill="#635728"><animate attributeName="fill" values="#2c2e31;#2c2e31;#ffd84a;#635728;#635728;#2c2e31" keyTimes="0.0000;0.3171;0.3219;0.3559;0.9612;1.0000" dur="10.3s" repeatCount="indefinite"/></rect>
<rect x="502.6" y="100.0" width="11.0" height="11.0" rx="2" fill="#635728"><animate attributeName="fill" values="#2c2e31;#2c2e31;#ffd84a;#635728;#635728;#2c2e31" keyTimes="0.0000;0.3257;0.3306;0.3646;0.9612;1.0000" dur="10.3s" repeatCount="indefinite"/></rect>
<rect x="502.6" y="114.0" width="11.0" height="11.0" rx="2" fill="#635728"><animate attributeName="fill" values="#2c2e31;#2c2e31;#ffd84a;#635728;#635728;#2c2e31" keyTimes="0.0000;0.3344;0.3393;0.3733;0.9612;1.0000" dur="10.3s" repeatCount="indefinite"/></rect>
<rect x="502.6" y="128.1" width="11.0" height="11.0" rx="2" fill="#2c2e31"></rect>
<rect x="502.6" y="142.1" width="11.0" height="11.0" rx="2" fill="#2c2e31"></rect>
<rect x="502.6" y="156.1" width="11.0" height="11.0" rx="2" fill="#2c2e31"></rect>
<rect x="502.6" y="170.1" width="11.0" height="11.0" rx="2" fill="#2c2e31"></rect>
<rect x="516.6" y="86.0" width="11.0" height="11.0" rx="2" fill="#2c2e31"></rect>
<rect x="516.6" y="100.0" width="11.0" height="11.0" rx="2" fill="#2c2e31"></rect>
<rect x="516.6" y="114.0" width="11.0" height="11.0" rx="2" fill="#2c2e31"></rect>
<rect x="516.6" y="128.1" width="11.0" height="11.0" rx="2" fill="#2c2e31"></rect>
<rect x="516.6" y="142.1" width="11.0" height="11.0" rx="2" fill="#2c2e31"></rect>
<rect x="516.6" y="156.1" width="11.0" height="11.0" rx="2" fill="#635728"><animate attributeName="fill" values="#2c2e31;#2c2e31;#ffd84a;#635728;#635728;#2c2e31" keyTimes="0.0000;0.3431;0.3480;0.3820;0.9612;1.0000" dur="10.3s" repeatCount="indefinite"/></rect>
<rect x="516.6" y="170.1" width="11.0" height="11.0" rx="2" fill="#2c2e31"></rect>
<rect x="530.7" y="86.0" width="11.0" height="11.0" rx="2" fill="#877222"><animate attributeName="fill" values="#2c2e31;#2c2e31;#ffd84a;#877222;#877222;#2c2e31" keyTimes="0.0000;0.3518;0.3567;0.3907;0.9612;1.0000" dur="10.3s" repeatCount="indefinite"/></rect>
<rect x="530.7" y="100.0" width="11.0" height="11.0" rx="2" fill="#2c2e31"></rect>
<rect x="530.7" y="114.0" width="11.0" height="11.0" rx="2" fill="#2c2e31"></rect>
<rect x="530.7" y="128.1" width="11.0" height="11.0" rx="2" fill="#2c2e31"></rect>
<rect x="530.7" y="142.1" width="11.0" height="11.0" rx="2" fill="#2c2e31"></rect>
<rect x="530.7" y="156.1" width="11.0" height="11.0" rx="2" fill="#635728"><animate attributeName="fill" values="#2c2e31;#2c2e31;#ffd84a;#635728;#635728;#2c2e31" keyTimes="0.0000;0.3605;0.3654;0.3994;0.9612;1.0000" dur="10.3s" repeatCount="indefinite"/></rect>
<rect x="530.7" y="170.1" width="11.0" height="11.0" rx="2" fill="#2c2e31"></rect>
<rect x="544.7" y="86.0" width="11.0" height="11.0" rx="2" fill="#2c2e31"></rect>
<rect x="544.7" y="100.0" width="11.0" height="11.0" rx="2" fill="#2c2e31"></rect>
<rect x="544.7" y="114.0" width="11.0" height="11.0" rx="2" fill="#2c2e31"></rect>
<rect x="544.7" y="128.1" width="11.0" height="11.0" rx="2" fill="#635728"><animate attributeName="fill" values="#2c2e31;#2c2e31;#ffd84a;#635728;#635728;#2c2e31" keyTimes="0.0000;0.3692;0.3741;0.4081;0.9612;1.0000" dur="10.3s" repeatCount="indefinite"/></rect>
<rect x="544.7" y="142.1" width="11.0" height="11.0" rx="2" fill="#877222"><animate attributeName="fill" values="#2c2e31;#2c2e31;#ffd84a;#877222;#877222;#2c2e31" keyTimes="0.0000;0.3779;0.3828;0.4168;0.9612;1.0000" dur="10.3s" repeatCount="indefinite"/></rect>
<rect x="544.7" y="156.1" width="11.0" height="11.0" rx="2" fill="#635728"><animate attributeName="fill" values="#2c2e31;#2c2e31;#ffd84a;#635728;#635728;#2c2e31" keyTimes="0.0000;0.3866;0.3915;0.4254;0.9612;1.0000" dur="10.3s" repeatCount="indefinite"/></rect>
<rect x="544.7" y="170.1" width="11.0" height="11.0" rx="2" fill="#2c2e31"></rect>
<text x="558.7" y="78.0" font-size="11" fill="#646669" text-anchor="start">jun</text>
<rect x="558.7" y="86.0" width="11.0" height="11.0" rx="2" fill="#2c2e31"></rect>
<rect x="558.7" y="100.0" width="11.0" height="11.0" rx="2" fill="#2c2e31"></rect>
<rect x="558.7" y="114.0" width="11.0" height="11.0" rx="2" fill="#2c2e31"></rect>
<rect x="558.7" y="128.1" width="11.0" height="11.0" rx="2" fill="#2c2e31"></rect>
<rect x="558.7" y="142.1" width="11.0" height="11.0" rx="2" fill="#2c2e31"></rect>
<rect x="558.7" y="156.1" width="11.0" height="11.0" rx="2" fill="#2c2e31"></rect>
<rect x="558.7" y="170.1" width="11.0" height="11.0" rx="2" fill="#2c2e31"></rect>
<rect x="572.7" y="86.0" width="11.0" height="11.0" rx="2" fill="#2c2e31"></rect>
<rect x="572.7" y="100.0" width="11.0" height="11.0" rx="2" fill="#2c2e31"></rect>
<rect x="572.7" y="114.0" width="11.0" height="11.0" rx="2" fill="#2c2e31"></rect>
<rect x="572.7" y="128.1" width="11.0" height="11.0" rx="2" fill="#2c2e31"></rect>
<rect x="572.7" y="142.1" width="11.0" height="11.0" rx="2" fill="#2c2e31"></rect>
<rect x="572.7" y="156.1" width="11.0" height="11.0" rx="2" fill="#2c2e31"></rect>
<rect x="572.7" y="170.1" width="11.0" height="11.0" rx="2" fill="#2c2e31"></rect>
<rect x="586.7" y="86.0" width="11.0" height="11.0" rx="2" fill="#635728"><animate attributeName="fill" values="#2c2e31;#2c2e31;#ffd84a;#635728;#635728;#2c2e31" keyTimes="0.0000;0.3953;0.4002;0.4341;0.9612;1.0000" dur="10.3s" repeatCount="indefinite"/></rect>
<rect x="586.7" y="100.0" width="11.0" height="11.0" rx="2" fill="#2c2e31"></rect>
<rect x="586.7" y="114.0" width="11.0" height="11.0" rx="2" fill="#635728"><animate attributeName="fill" values="#2c2e31;#2c2e31;#ffd84a;#635728;#635728;#2c2e31" keyTimes="0.0000;0.4040;0.4089;0.4428;0.9612;1.0000" dur="10.3s" repeatCount="indefinite"/></rect>
<rect x="586.7" y="128.1" width="11.0" height="11.0" rx="2" fill="#2c2e31"></rect>
<rect x="586.7" y="142.1" width="11.0" height="11.0" rx="2" fill="#635728"><animate attributeName="fill" values="#2c2e31;#2c2e31;#ffd84a;#635728;#635728;#2c2e31" keyTimes="0.0000;0.4127;0.4175;0.4515;0.9612;1.0000" dur="10.3s" repeatCount="indefinite"/></rect>
<rect x="586.7" y="156.1" width="11.0" height="11.0" rx="2" fill="#2c2e31"></rect>
<rect x="586.7" y="170.1" width="11.0" height="11.0" rx="2" fill="#2c2e31"></rect>
<rect x="600.8" y="86.0" width="11.0" height="11.0" rx="2" fill="#2c2e31"></rect>
<rect x="600.8" y="100.0" width="11.0" height="11.0" rx="2" fill="#2c2e31"></rect>
<rect x="600.8" y="114.0" width="11.0" height="11.0" rx="2" fill="#2c2e31"></rect>
<rect x="600.8" y="128.1" width="11.0" height="11.0" rx="2" fill="#2c2e31"></rect>
<rect x="600.8" y="142.1" width="11.0" height="11.0" rx="2" fill="#2c2e31"></rect>
<rect x="600.8" y="156.1" width="11.0" height="11.0" rx="2" fill="#2c2e31"></rect>
<rect x="600.8" y="170.1" width="11.0" height="11.0" rx="2" fill="#2c2e31"></rect>
<text x="614.8" y="78.0" font-size="11" fill="#646669" text-anchor="start">jul</text>
<rect x="614.8" y="86.0" width="11.0" height="11.0" rx="2" fill="#2c2e31"></rect>
<rect x="614.8" y="100.0" width="11.0" height="11.0" rx="2" fill="#2c2e31"></rect>
<rect x="614.8" y="114.0" width="11.0" height="11.0" rx="2" fill="#2c2e31"></rect>
<rect x="614.8" y="128.1" width="11.0" height="11.0" rx="2" fill="#2c2e31"></rect>
<rect x="614.8" y="142.1" width="11.0" height="11.0" rx="2" fill="#2c2e31"></rect>
<rect x="614.8" y="156.1" width="11.0" height="11.0" rx="2" fill="#2c2e31"></rect>
<rect x="614.8" y="170.1" width="11.0" height="11.0" rx="2" fill="#2c2e31"></rect>
<rect x="628.8" y="86.0" width="11.0" height="11.0" rx="2" fill="#2c2e31"></rect>
<rect x="628.8" y="100.0" width="11.0" height="11.0" rx="2" fill="#2c2e31"></rect>
<rect x="628.8" y="114.0" width="11.0" height="11.0" rx="2" fill="#2c2e31"></rect>
<rect x="628.8" y="128.1" width="11.0" height="11.0" rx="2" fill="#2c2e31"></rect>
<rect x="628.8" y="142.1" width="11.0" height="11.0" rx="2" fill="#2c2e31"></rect>
<rect x="628.8" y="156.1" width="11.0" height="11.0" rx="2" fill="#2c2e31"></rect>
<rect x="628.8" y="170.1" width="11.0" height="11.0" rx="2" fill="#2c2e31"></rect>
<rect x="642.8" y="86.0" width="11.0" height="11.0" rx="2" fill="#2c2e31"></rect>
<rect x="642.8" y="100.0" width="11.0" height="11.0" rx="2" fill="#2c2e31"></rect>
<rect x="642.8" y="114.0" width="11.0" height="11.0" rx="2" fill="#2c2e31"></rect>
<rect x="642.8" y="128.1" width="11.0" height="11.0" rx="2" fill="#2c2e31"></rect>
<rect x="642.8" y="142.1" width="11.0" height="11.0" rx="2" fill="#2c2e31"></rect>
<rect x="642.8" y="156.1" width="11.0" height="11.0" rx="2" fill="#2c2e31"></rect>
<rect x="642.8" y="170.1" width="11.0" height="11.0" rx="2" fill="#2c2e31"></rect>
<rect x="656.8" y="86.0" width="11.0" height="11.0" rx="2" fill="#635728"><animate attributeName="fill" values="#2c2e31;#2c2e31;#ffd84a;#635728;#635728;#2c2e31" keyTimes="0.0000;0.4214;0.4262;0.4602;0.9612;1.0000" dur="10.3s" repeatCount="indefinite"/></rect>
<rect x="656.8" y="100.0" width="11.0" height="11.0" rx="2" fill="#2c2e31"></rect>
<rect x="656.8" y="114.0" width="11.0" height="11.0" rx="2" fill="#635728"><animate attributeName="fill" values="#2c2e31;#2c2e31;#ffd84a;#635728;#635728;#2c2e31" keyTimes="0.0000;0.4301;0.4349;0.4689;0.9612;1.0000" dur="10.3s" repeatCount="indefinite"/></rect>
<rect x="656.8" y="128.1" width="11.0" height="11.0" rx="2" fill="#2c2e31"></rect>
<rect x="656.8" y="142.1" width="11.0" height="11.0" rx="2" fill="#2c2e31"></rect>
<rect x="656.8" y="156.1" width="11.0" height="11.0" rx="2" fill="#2c2e31"></rect>
<rect x="656.8" y="170.1" width="11.0" height="11.0" rx="2" fill="#635728"><animate attributeName="fill" values="#2c2e31;#2c2e31;#ffd84a;#635728;#635728;#2c2e31" keyTimes="0.0000;0.4388;0.4436;0.4776;0.9612;1.0000" dur="10.3s" repeatCount="indefinite"/></rect>
<text x="670.8" y="78.0" font-size="11" fill="#646669" text-anchor="start">aug</text>
<rect x="670.8" y="86.0" width="11.0" height="11.0" rx="2" fill="#635728"><animate attributeName="fill" values="#2c2e31;#2c2e31;#ffd84a;#635728;#635728;#2c2e31" keyTimes="0.0000;0.4475;0.4523;0.4863;0.9612;1.0000" dur="10.3s" repeatCount="indefinite"/></rect>
<rect x="670.8" y="100.0" width="11.0" height="11.0" rx="2" fill="#635728"><animate attributeName="fill" values="#2c2e31;#2c2e31;#ffd84a;#635728;#635728;#2c2e31" keyTimes="0.0000;0.4562;0.4610;0.4950;0.9612;1.0000" dur="10.3s" repeatCount="indefinite"/></rect>
<rect x="670.8" y="114.0" width="11.0" height="11.0" rx="2" fill="#2c2e31"></rect>
<rect x="670.8" y="128.1" width="11.0" height="11.0" rx="2" fill="#2c2e31"></rect>
<rect x="670.8" y="142.1" width="11.0" height="11.0" rx="2" fill="#2c2e31"></rect>
<rect x="670.8" y="156.1" width="11.0" height="11.0" rx="2" fill="#635728"><animate attributeName="fill" values="#2c2e31;#2c2e31;#ffd84a;#635728;#635728;#2c2e31" keyTimes="0.0000;0.4649;0.4697;0.5037;0.9612;1.0000" dur="10.3s" repeatCount="indefinite"/></rect>
<rect x="670.8" y="170.1" width="11.0" height="11.0" rx="2" fill="#2c2e31"></rect>
<rect x="684.9" y="86.0" width="11.0" height="11.0" rx="2" fill="#635728"><animate attributeName="fill" values="#2c2e31;#2c2e31;#ffd84a;#635728;#635728;#2c2e31" keyTimes="0.0000;0.4736;0.4784;0.5124;0.9612;1.0000" dur="10.3s" repeatCount="indefinite"/></rect>
<rect x="684.9" y="100.0" width="11.0" height="11.0" rx="2" fill="#635728"><animate attributeName="fill" values="#2c2e31;#2c2e31;#ffd84a;#635728;#635728;#2c2e31" keyTimes="0.0000;0.4822;0.4871;0.5211;0.9612;1.0000" dur="10.3s" repeatCount="indefinite"/></rect>
<rect x="684.9" y="114.0" width="11.0" height="11.0" rx="2" fill="#2c2e31"></rect>
<rect x="684.9" y="128.1" width="11.0" height="11.0" rx="2" fill="#2c2e31"></rect>
<rect x="684.9" y="142.1" width="11.0" height="11.0" rx="2" fill="#635728"><animate attributeName="fill" values="#2c2e31;#2c2e31;#ffd84a;#635728;#635728;#2c2e31" keyTimes="0.0000;0.4909;0.4958;0.5298;0.9612;1.0000" dur="10.3s" repeatCount="indefinite"/></rect>
<rect x="684.9" y="156.1" width="11.0" height="11.0" rx="2" fill="#2c2e31"></rect>
<rect x="684.9" y="170.1" width="11.0" height="11.0" rx="2" fill="#2c2e31"></rect>
<rect x="698.9" y="86.0" width="11.0" height="11.0" rx="2" fill="#2c2e31"></rect>
<rect x="698.9" y="100.0" width="11.0" height="11.0" rx="2" fill="#635728"><animate attributeName="fill" values="#2c2e31;#2c2e31;#ffd84a;#635728;#635728;#2c2e31" keyTimes="0.0000;0.4996;0.5045;0.5385;0.9612;1.0000" dur="10.3s" repeatCount="indefinite"/></rect>
<rect x="698.9" y="114.0" width="11.0" height="11.0" rx="2" fill="#2c2e31"></rect>
<rect x="698.9" y="128.1" width="11.0" height="11.0" rx="2" fill="#2c2e31"></rect>
<rect x="698.9" y="142.1" width="11.0" height="11.0" rx="2" fill="#2c2e31"></rect>
<rect x="698.9" y="156.1" width="11.0" height="11.0" rx="2" fill="#635728"><animate attributeName="fill" values="#2c2e31;#2c2e31;#ffd84a;#635728;#635728;#2c2e31" keyTimes="0.0000;0.5083;0.5132;0.5472;0.9612;1.0000" dur="10.3s" repeatCount="indefinite"/></rect>
<rect x="698.9" y="170.1" width="11.0" height="11.0" rx="2" fill="#635728"><animate attributeName="fill" values="#2c2e31;#2c2e31;#ffd84a;#635728;#635728;#2c2e31" keyTimes="0.0000;0.5170;0.5219;0.5559;0.9612;1.0000" dur="10.3s" repeatCount="indefinite"/></rect>
<rect x="712.9" y="86.0" width="11.0" height="11.0" rx="2" fill="#635728"><animate attributeName="fill" values="#2c2e31;#2c2e31;#ffd84a;#635728;#635728;#2c2e31" keyTimes="0.0000;0.5257;0.5306;0.5646;0.9612;1.0000" dur="10.3s" repeatCount="indefinite"/></rect>
<rect x="712.9" y="100.0" width="11.0" height="11.0" rx="2" fill="#2c2e31"></rect>
<rect x="712.9" y="114.0" width="11.0" height="11.0" rx="2" fill="#635728"><animate attributeName="fill" values="#2c2e31;#2c2e31;#ffd84a;#635728;#635728;#2c2e31" keyTimes="0.0000;0.5344;0.5393;0.5733;0.9612;1.0000" dur="10.3s" repeatCount="indefinite"/></rect>
<rect x="712.9" y="128.1" width="11.0" height="11.0" rx="2" fill="#635728"><animate attributeName="fill" values="#2c2e31;#2c2e31;#ffd84a;#635728;#635728;#2c2e31" keyTimes="0.0000;0.5431;0.5480;0.5819;0.9612;1.0000" dur="10.3s" repeatCount="indefinite"/></rect>
<rect x="712.9" y="142.1" width="11.0" height="11.0" rx="2" fill="#635728"><animate attributeName="fill" values="#2c2e31;#2c2e31;#ffd84a;#635728;#635728;#2c2e31" keyTimes="0.0000;0.5518;0.5567;0.5906;0.9612;1.0000" dur="10.3s" repeatCount="indefinite"/></rect>
<rect x="712.9" y="156.1" width="11.0" height="11.0" rx="2" fill="#2c2e31"></rect>
<rect x="712.9" y="170.1" width="11.0" height="11.0" rx="2" fill="#2c2e31"></rect>
<rect x="726.9" y="86.0" width="11.0" height="11.0" rx="2" fill="#2c2e31"></rect>
<rect x="726.9" y="100.0" width="11.0" height="11.0" rx="2" fill="#2c2e31"></rect>
<rect x="726.9" y="114.0" width="11.0" height="11.0" rx="2" fill="#2c2e31"></rect>
<rect x="726.9" y="128.1" width="11.0" height="11.0" rx="2" fill="#2c2e31"></rect>
<rect x="726.9" y="142.1" width="11.0" height="11.0" rx="2" fill="#2c2e31"></rect>
<rect x="726.9" y="156.1" width="11.0" height="11.0" rx="2" fill="#2c2e31"></rect>
<rect x="726.9" y="170.1" width="11.0" height="11.0" rx="2" fill="#2c2e31"></rect>
<text x="740.9" y="78.0" font-size="11" fill="#646669" text-anchor="start">sep</text>
<rect x="740.9" y="86.0" width="11.0" height="11.0" rx="2" fill="#2c2e31"></rect>
<rect x="740.9" y="100.0" width="11.0" height="11.0" rx="2" fill="#2c2e31"></rect>
<rect x="740.9" y="114.0" width="11.0" height="11.0" rx="2" fill="#2c2e31"></rect>
<rect x="740.9" y="128.1" width="11.0" height="11.0" rx="2" fill="#2c2e31"></rect>
<rect x="740.9" y="142.1" width="11.0" height="11.0" rx="2" fill="#2c2e31"></rect>
<rect x="740.9" y="156.1" width="11.0" height="11.0" rx="2" fill="#2c2e31"></rect>
<rect x="740.9" y="170.1" width="11.0" height="11.0" rx="2" fill="#2c2e31"></rect>
<rect x="755.0" y="86.0" width="11.0" height="11.0" rx="2" fill="#2c2e31"></rect>
<rect x="755.0" y="100.0" width="11.0" height="11.0" rx="2" fill="#2c2e31"></rect>
<rect x="755.0" y="114.0" width="11.0" height="11.0" rx="2" fill="#2c2e31"></rect>
<rect x="755.0" y="128.1" width="11.0" height="11.0" rx="2" fill="#2c2e31"></rect>
<rect x="755.0" y="142.1" width="11.0" height="11.0" rx="2" fill="#2c2e31"></rect>
<rect x="755.0" y="156.1" width="11.0" height="11.0" rx="2" fill="#635728"><animate attributeName="fill" values="#2c2e31;#2c2e31;#ffd84a;#635728;#635728;#2c2e31" keyTimes="0.0000;0.5605;0.5654;0.5993;0.9612;1.0000" dur="10.3s" repeatCount="indefinite"/></rect>
<rect x="755.0" y="170.1" width="11.0" height="11.0" rx="2" fill="#e2b714"><animate attributeName="fill" values="#2c2e31;#2c2e31;#ffd84a;#e2b714;#e2b714;#2c2e31" keyTimes="0.0000;0.5692;0.5740;0.6080;0.9612;1.0000" dur="10.3s" repeatCount="indefinite"/></rect>
<rect x="769.0" y="86.0" width="11.0" height="11.0" rx="2" fill="#877222"><animate attributeName="fill" values="#2c2e31;#2c2e31;#ffd84a;#877222;#877222;#2c2e31" keyTimes="0.0000;0.5779;0.5827;0.6167;0.9612;1.0000" dur="10.3s" repeatCount="indefinite"/></rect>
<rect x="769.0" y="100.0" width="11.0" height="11.0" rx="2" fill="#635728"><animate attributeName="fill" values="#2c2e31;#2c2e31;#ffd84a;#635728;#635728;#2c2e31" keyTimes="0.0000;0.5866;0.5914;0.6254;0.9612;1.0000" dur="10.3s" repeatCount="indefinite"/></rect>
<rect x="769.0" y="114.0" width="11.0" height="11.0" rx="2" fill="#877222"><animate attributeName="fill" values="#2c2e31;#2c2e31;#ffd84a;#877222;#877222;#2c2e31" keyTimes="0.0000;0.5953;0.6001;0.6341;0.9612;1.0000" dur="10.3s" repeatCount="indefinite"/></rect>
<rect x="769.0" y="128.1" width="11.0" height="11.0" rx="2" fill="#b4951b"><animate attributeName="fill" values="#2c2e31;#2c2e31;#ffd84a;#b4951b;#b4951b;#2c2e31" keyTimes="0.0000;0.6040;0.6088;0.6428;0.9612;1.0000" dur="10.3s" repeatCount="indefinite"/></rect>
<rect x="769.0" y="142.1" width="11.0" height="11.0" rx="2" fill="#b4951b"><animate attributeName="fill" values="#2c2e31;#2c2e31;#ffd84a;#b4951b;#b4951b;#2c2e31" keyTimes="0.0000;0.6127;0.6175;0.6515;0.9612;1.0000" dur="10.3s" repeatCount="indefinite"/></rect>
<text x="40.0" y="218.1" font-size="12" fill="#646669" text-anchor="start">public repos</text>
<text x="40.0" y="246.1" font-size="22" fill="#d1d0c5" text-anchor="start">19</text>
<text x="225.0" y="218.1" font-size="12" fill="#646669" text-anchor="start">stars</text>
<text x="225.0" y="246.1" font-size="22" fill="#d1d0c5" text-anchor="start">4</text>
<text x="410.0" y="218.1" font-size="12" fill="#646669" text-anchor="start">current streak</text>
<text x="410.0" y="246.1" font-size="22" fill="#d1d0c5" text-anchor="start">7d</text>
<text x="595.0" y="218.1" font-size="12" fill="#646669" text-anchor="start">longest streak</text>
<text x="595.0" y="246.1" font-size="22" fill="#d1d0c5" text-anchor="start">7d</text>
<text x="40.0" y="276.1" font-size="12" fill="#646669" text-anchor="start">top languages</text>
<clipPath id="bar"><rect x="40" y="288.1320754716981" width="740" height="10" rx="5"/></clipPath>
<rect x="40.0" y="288.1320754716981" width="559.3" height="10" fill="#e2b714" clip-path="url(#bar)"/>
<rect x="40.0" y="312.1320754716981" width="9" height="9" rx="2" fill="#e2b714"/>
<text x="54.0" y="321.1" font-size="12" fill="#d1d0c5" text-anchor="start">typescript 76%</text>
<rect x="598.8" y="288.1320754716981" width="101.9" height="10" fill="#d1d0c5" clip-path="url(#bar)"/>
<rect x="180.2" y="312.1320754716981" width="9" height="9" rx="2" fill="#d1d0c5"/>
<text x="194.2" y="321.1" font-size="12" fill="#d1d0c5" text-anchor="start">python 14%</text>
<rect x="700.2" y="288.1320754716981" width="41.3" height="10" fill="#b6961d" clip-path="url(#bar)"/>
<rect x="290.6" y="312.1320754716981" width="9" height="9" rx="2" fill="#b6961d"/>
<text x="304.6" y="321.1" font-size="12" fill="#d1d0c5" text-anchor="start">kotlin 6%</text>
<rect x="741.0" y="288.1320754716981" width="18.1" height="10" fill="#898a85" clip-path="url(#bar)"/>
<rect x="393.5" y="312.1320754716981" width="9" height="9" rx="2" fill="#898a85"/>
<text x="407.5" y="321.1" font-size="12" fill="#d1d0c5" text-anchor="start">html 2%</text>
<rect x="758.6" y="288.1320754716981" width="13.1" height="10" fill="#8a7626" clip-path="url(#bar)"/>
<rect x="481.6" y="312.1320754716981" width="9" height="9" rx="2" fill="#8a7626"/>
<text x="495.6" y="321.1" font-size="12" fill="#d1d0c5" text-anchor="start">shell 2%</text>
<rect x="771.2" y="288.1320754716981" width="9.3" height="10" fill="#646669" clip-path="url(#bar)"/>
<rect x="577.1" y="312.1320754716981" width="9" height="9" rx="2" fill="#646669"/>
<text x="591.1" y="321.1" font-size="12" fill="#d1d0c5" text-anchor="start">javascript 1%</text>
</svg>
