<svg xmlns="http://www.w3.org/2000/svg" viewBox="0 0 820 150" width="820" height="150" font-family="'Roboto Mono', 'Fira Code', Consolas, 'DejaVu Sans Mono', monospace">
<rect width="820" height="150" rx="14" fill="#323437"/>
<rect x="40" y="32" width="52" height="34" rx="7" fill="none" stroke="#e2b714" stroke-width="3.5"/>
<rect x="49.0" y="40" width="5" height="4" rx="1" fill="#e2b714"/>
<rect x="58.5" y="40" width="5" height="4" rx="1" fill="#e2b714"/>
<rect x="68.0" y="40" width="5" height="4" rx="1" fill="#e2b714"/>
<rect x="77.5" y="40" width="5" height="4" rx="1" fill="#e2b714"/>
<rect x="49.0" y="48" width="5" height="4" rx="1" fill="#e2b714"/>
<rect x="58.5" y="48" width="5" height="4" rx="1" fill="#e2b714"/>
<rect x="68.0" y="48" width="5" height="4" rx="1" fill="#e2b714"/>
<rect x="77.5" y="48" width="5" height="4" rx="1" fill="#e2b714"/>
<rect x="53" y="56" width="26" height="4" rx="1" fill="#e2b714"/>
<text x="106" y="38" font-size="11" fill="#646669">student see</text>
<text x="104" y="66" font-size="34" fill="#d1d0c5">teterw</text>
<text x="780" y="58" font-size="15" fill="#646669" text-anchor="end">act · thailand · always building</text>
<rect x="90.3" y="96" width="639.4" height="34" rx="8" fill="#2c2e31"/>
<text x="114.3" y="118" font-size="13" fill="#e2b714">@ python</text>
<text x="200.8" y="118" font-size="13" fill="#e2b714"># next.js</text>
<rect x="284.3" y="104" width="4" height="18" rx="2" fill="#323437"/>
<text x="299.3" y="118" font-size="13" fill="#e2b714">web</text>
<text x="345.5" y="118" font-size="13" fill="#646669">automation</text>
<text x="448.1" y="118" font-size="13" fill="#e2b714">side projects</text>
<rect x="563.9" y="104" width="4" height="18" rx="2" fill="#323437"/>
<text x="578.9" y="118" font-size="13" fill="#646669">kotlin</text>
<text x="649.3" y="118" font-size="13" fill="#646669">arduino</text>
</svg>
